<svg xmlns="http://www.w3.org/2000/svg" viewBox="0 0 3223.45 1809.58"><defs><style>.cls-1{fill:#95a6db;}.cls-2{fill:#4364cc;}.cls-3{fill:#f37a50;}.cls-4{fill:#8a284c;}.cls-5{fill:#e62552;}.cls-6{fill:#3b1120;}.cls-7{fill:#de623c;}.cls-8{fill:#fff;}.cls-9{fill:#070635;}.cls-10{fill:#768fdb;}.cls-11{fill:#201d40;}.cls-12{fill:#2c2858;}.cls-13{fill:#494c7f;}.cls-14{fill:#c4204a;}.cls-15{fill:#ffd0b7;}.cls-16{fill:#4661b3;}.cls-17{fill:#0e6a41;}.cls-18{fill:#3f964f;}.cls-19{fill:#55ab65;}.cls-20{fill:#95adf5;}.cls-21{fill:#555994;}.cls-22{fill:#cfdbff;}.cls-23{fill:#7f99eb;}.cls-24{fill:#e3eaff;}.cls-25{fill:#bdcdff;}.cls-26{fill:#cdd8fa;}</style></defs><g id="Layer_2" data-name="Layer 2"><g id="Слой_1" data-name="Слой 1"><path class="cls-1" d="M3212.34,1808.24H97.6a11.11,11.11,0,0,1-11.12-11.11h0A11.12,11.12,0,0,1,97.6,1786H3212.34a11.11,11.11,0,0,1,11.11,11.11h0A11.1,11.1,0,0,1,3212.34,1808.24Z"/><path d="M1278.15,758.65c-49.82-14.06-156.24,31-127.27,212.19S1317,1122.17,1317,1122.17s59.8-18.8,65.16-133.92S1361.94,782.29,1278.15,758.65Z"/><path class="cls-2" d="M1253.12,1000.91s-65.62,50.85-163.47,47.71c-19.74-37.84,20.48-56.66,20.48-56.66l78.28-35.47s28.17-9.26,51.41,9C1260.06,981.46,1253.12,1000.91,1253.12,1000.91Z"/><path class="cls-3" d="M1184,900.53S1159,959.74,1144.45,995c-5.75,14-27.54,54.43-54.8,53.62-24.21-26.08,8.47-99.34,82-159.85C1180.33,898,1184,900.53,1184,900.53Z"/><path class="cls-4" d="M1180.51,926.06l-24.2-11.88a6.64,6.64,0,0,1-3-8.87l25.43-51.77c1.62-3.28,7.89-5.42,11.17-3.81l21.9,12.67a6.62,6.62,0,0,1,3,8.86l-21.69,52.63C1192.1,926.37,1186.46,929.08,1180.51,926.06Z"/><path class="cls-5" d="M1185.45,925.73l-24.2-11.89a6.61,6.61,0,0,1-3-8.86l25.43-51.78a6.62,6.62,0,0,1,8.86-3l24.2,11.88a6.63,6.63,0,0,1,3,8.87l-25.43,51.77A6.62,6.62,0,0,1,1185.45,925.73Z"/><path class="cls-6" d="M1188.45,915.28l-20.53-10.08a5.46,5.46,0,0,1-2.49-7.3l20.4-41.53a5.44,5.44,0,0,1,7.29-2.48L1213.65,864a5.44,5.44,0,0,1,2.49,7.29l-20.4,41.53A5.45,5.45,0,0,1,1188.45,915.28Z"/><path class="cls-4" d="M1179,915.59a3.3,3.3,0,1,1-2.52-3.93A3.3,3.3,0,0,1,1179,915.59Z"/><path id="c" class="cls-3" d="M1158.12,890.34a5.3,5.3,0,0,1,1.51-.56c-.05-.08-.11-.16-.15-.24-2.83-4.76-2.34-10.26,1.07-12.29a5.34,5.34,0,0,1,1.8-.65c-.68-3.45.25-6.67,2.69-8.12a5.59,5.59,0,0,1,3.22-.72c-.91-3.41.12-6.89,2.85-8.51,3.42-2,8.15-.36,10.56,3.7s1.59,9-1.83,11a6.18,6.18,0,0,1-2.79.85c2,4.4,1.31,9.07-1.78,10.9a5.34,5.34,0,0,1-1.8.65c.68,3.46-.25,6.68-2.69,8.12a5.41,5.41,0,0,1-3,.74c.94,3,.09,6.12-2.31,7.54-2.89,1.71-6.88.31-8.92-3.12S1155.24,892.05,1158.12,890.34Z"/><path class="cls-3" d="M1234.88,923.24l37.14-5.56-3,34.47s-18.81,33.89-36.66,28.06-9.14-20.81-9.14-20.81Z"/><path class="cls-3" d="M1301.73,867.32c-6,40.72-36.86,69.9-68.85,65.16s-53-41.6-47-82.33,36.86-69.9,68.84-65.16S1307.76,826.59,1301.73,867.32Z"/><path d="M1267,856.33a2.15,2.15,0,0,1-1.14-.82c-4.14-6-12.48-5.79-12.57-5.78a2.12,2.12,0,0,1-.13-4.24c.43,0,10.7-.27,16.18,7.6a2.12,2.12,0,0,1-2.34,3.24Z"/><path d="M1195.62,855.15a2.33,2.33,0,0,1-.6-.36,2.11,2.11,0,0,1-.24-3,14.83,14.83,0,0,1,14.38-4.9,2.12,2.12,0,0,1-1,4.11,10.6,10.6,0,0,0-10.13,3.52A2.12,2.12,0,0,1,1195.62,855.15Z"/><path class="cls-7" d="M1225.15,872.39c-2.66,3.27-5,6.6-7.59,8.61a2.11,2.11,0,0,0-.45,2.87c2.61,3.81,9.49,6.53,13.69,7.89a.57.57,0,0,0,.51-1c-4.4-3.22-6.39-5.7-7.25-7.08a2.54,2.54,0,0,1-.19-2.29c.69-1.72,2.06-5.24,2.94-8.13A1,1,0,0,0,1225.15,872.39Z"/><path class="cls-8" d="M1252,903.15a1.69,1.69,0,0,0-1.71-2.59,119.46,119.46,0,0,1-31.73,1.9,1.69,1.69,0,0,0-1.38,2.78c2.94,3.5,8.89,8.73,18,8.19S1249.46,907,1252,903.15Z"/><path d="M1314.74,863.59c-37.83-1.72-87.59-36.63-93.6-55.8,5.16-24.13,24.18-37.76,46.9-28.8S1328,832.64,1314.74,863.59Z"/><path d="M1229.78,817.48s-22.51,22.88-45.31,28.11c8-26.69,13.68-46.92,27.36-53.48s28.78-7.69,28.78-7.69Z"/><path class="cls-3" d="M1292.88,861c-7.09,6.59-8.46,16.64-3.07,22.45s15.52,5.16,22.61-1.44,8.46-16.64,3.07-22.44S1300,854.4,1292.88,861Z"/><path class="cls-7" d="M1299,880.8a2,2,0,0,1-.79-.55c-3.27-3.63-3.93-8-1.77-11.63a10.21,10.21,0,0,1,10.8-4.8,2.12,2.12,0,0,1-1,4.13,6,6,0,0,0-6.19,2.83c-1.2,2-.75,4.39,1.27,6.64a2.11,2.11,0,0,1-2.35,3.38Z"/><path d="M1262.89,862.56a6.5,6.5,0,1,1-6.5-6.5A6.5,6.5,0,0,1,1262.89,862.56Z"/><path d="M1215.52,862.56a6.5,6.5,0,1,1-6.5-6.5A6.5,6.5,0,0,1,1215.52,862.56Z"/><path class="cls-3" d="M1200.11,1703.79c2.49-24.8-10.31-213.56-10.31-213.56-36.19-165.94-22-284.73-22-284.73l62.21,4.37,24.51,93.77-11.63,156.61s4.37,12,6.67,21.69c12.49,52.28.05,114.75-7.64,156.39-3.56,19.3-9.11,59.85-9.25,69.07l15.63,20.2s-56.56,62.6-65.26,63c-16.91.76-11.93-16-11.93-16C1194.38,1750.73,1199.4,1710.9,1200.11,1703.79Z"/><path class="cls-5" d="M1249.28,1749.78l-3.11,40.22-7.23.32-3.65-37.34c-19.24,4.91-33,39.82-33,39.82-13.25,4.75-46.93,8-58.92,1.84-2.9-11.75,27.84-20,27.84-20,2.78,3.29,19.19,5.81,25,2.29,21.45-18.27,31.92-44.84,36.49-69.54C1232.69,1707.4,1266.59,1709.76,1249.28,1749.78Z"/><path class="cls-3" d="M1221.14,1217.57l87.63-12.07c33.52,75.84,44.45,207.89,53.55,254.93,36.53,61.24,48.13,247,48.13,247l15.62,20.2s-56.55,62.6-65.25,63c-16.91.76-11.93-16-11.93-16,23.24-23.87,27.77-55.58,29.28-62.56,2.26-10.49-70.93-216.53-70.93-216.53l-7.81-19.55c-89.39-147.65-104.06-259.27-104.06-259.27Z"/><path class="cls-5" d="M1427,1749.78l-3.11,40.22-7.23.32L1413,1753c-19.23,4.91-33,39.82-33,39.82-13.25,4.75-46.94,8-58.93,1.84-2.89-11.75,27.85-20,27.85-20,2.78,3.29,19.18,5.81,25,2.29,21.46-18.27,31.92-44.84,36.5-69.54C1410.45,1707.4,1444.35,1709.76,1427,1749.78Z"/><path class="cls-9" d="M1384.06,1451.81c-8.75-29.28-4.94-238.85-82.2-295.84l-132.94,14c-30.73,49.72-19.46,179.12-9.11,285.61C1222.32,1477.9,1272,1486.85,1384.06,1451.81Z"/><path class="cls-10" d="M1167.29,1137.17c0-29.11-25.23-72.73-13.13-102.12,8.81-23.64,26.11-77,45-80.58,7.66-1.46,16.06,0,26.65-2.92,0,0-5.53,24.69,6.93,25.69,24,1.92,36.57-28.82,36.57-28.82,12.93-1.23,58,12.22,58,17.09-.14,38.14-16.91,99.81-27,141a185.12,185.12,0,0,0,1.71,49.16c3.84,12.39,8.53,19.48,8.56,22.16,0,0-88.87,30.19-145.42-.94C1165.07,1176.93,1167.29,1156.83,1167.29,1137.17Z"/><g id="c-2" data-name="c"><path class="cls-3" d="M1325.41,1164.84l-7.58,3s-7.89-12.56-15.9-12.16l4,12s-4.53,14-28.78,12.41c-20.72,4.71-6.23,14.55-12,18.48-8.47,5.81,15.27,20.06,35.27,13.91,25.87-8,42.68-32.39,42.68-32.39Z"/></g><path class="cls-3" d="M1325.41,963.23s63.32,37.09,94,126c-27.53,30.52-50.73,7.74-50.73,7.74l-61.35-60.61s-18-22.15-9.41-49.21C1305.4,963.58,1325.41,963.23,1325.41,963.23Z"/><path class="cls-3" d="M1325.41,1164.84l44.26-64.83s10.46-24.87,49.71-10.78c1.91,21.1-13.38,51.16-83.39,97.47A155.87,155.87,0,0,0,1325.41,1164.84Z"/><path class="cls-8" d="M1232.71,977.24c-2.14,10,3.65,21.93,20.36,16.32,20-6.71,29.37-44.28,29.37-44.28l-12.55-6.8S1260.36,968.43,1232.71,977.24Z"/><path class="cls-8" d="M1232.71,977.24c-2.47,5.14-16.55,18.31-23.22,10.46s1.12-28.44,1.12-28.44l15.17-7.71S1219.83,970.1,1232.71,977.24Z"/><path class="cls-2" d="M1325.41,963.23s63.32,37.09,94,126c-27.53,30.52-53.12,5.38-53.12,5.38l-59-58.25s-18-22.15-9.41-49.21C1305.4,963.58,1325.41,963.23,1325.41,963.23Z"/><path class="cls-11" d="M2863.14,957.74c-26.53,9-113.22,164.89-113.22,164.89l66.81,4.39,71.55-72.52Z"/><path d="M2952.46,1728.72c-24.71,33-85.4,12.74-83.4,57.33,92.3-.57,130.66,0,130.66,0-.12-10.24-1.95-34.55-4.07-44.06Z"/><path d="M3090.56,1729.59c-24.72,33-85.41,12.74-83.4,57.32,92.29-.57,130.65,0,130.65,0-.12-10.24-1.95-34.54-4.07-44.06Z"/><path class="cls-11" d="M2899.39,1224.07s-14.82,212.37-8.73,259.35,37.82,107.48,35.38,262.86c30.09,7.28,73.68,0,73.68,0s6.46-175.69-25.34-254.16c12.93-76.22,54.43-250.81,54.43-250.81Z"/><path class="cls-12" d="M2990.92,1231.5S2992.3,1466,3007.11,1511s43.6,77.09,70.41,230.15c30.92,1.5,75.45,2.14,75.45,2.14s-15.84-196.72-64-240.88c-1.63-77.29,18.24-272.35,18.24-272.35Z"/><polygon class="cls-1" points="2916.64 925.68 2956.61 912.51 2998.64 914.48 2964.62 970.48 2916.64 925.68"/><path class="cls-3" d="M2931,951.78a55.39,55.39,0,0,0,62-8.64l-8-63.1-58.59,8.65Z"/><path class="cls-1" d="M3014.13,934h0l-13.2-2-2.29-17.46-27.4,34.65-9.13,3.68-9.79-1.1-35.67-26,2.47,17.44-10.19,4.58h0l-37.08,15.06,44.38,214.78,1.37,71.36c55,5.29,113.19,1.28,167.59-19.33L3066.58,1157l-7.95-218Z"/><polygon class="cls-5" points="2954.87 976.38 2961.37 1145.49 2978.35 1161.68 2993.38 1144.89 2967.8 975.37 2954.87 976.38"/><polygon class="cls-5" points="2942.45 956.98 2957.45 951.96 2974.91 953.66 2967.85 975.7 2954.89 976.95 2942.45 956.98"/><path class="cls-12" d="M2914.12,933.84l22.69,189.32,19,132.92s-36.61,17.9-67.49-.41l-25.71-297.88Z"/><polygon class="cls-13" points="2914.83 931.73 2938.68 1136.26 2890.75 980.87 2914.83 931.73"/><path class="cls-12" d="M3000,916.23l27.85,337s70.41,4.33,96.5-17.46l-27.21-104.43-40.92-215.6Z"/><polygon class="cls-13" points="2999.24 915.64 3016.96 1121.75 3034.53 955.96 2999.24 915.64"/><path class="cls-3" d="M3000.11,832.76c-4.5,43.91-36.12,76.64-70.6,73.1s-58.8-42-54.29-85.92,36.11-76.64,70.6-73.1S3004.62,788.85,3000.11,832.76Z"/><path d="M2893.3,836.36a6.5,6.5,0,1,1,3.43-8.53A6.51,6.51,0,0,1,2893.3,836.36Z"/><path d="M2942.68,830.28a6.53,6.53,0,1,1-3.62-8.49A6.53,6.53,0,0,1,2942.68,830.28Z"/><path class="cls-7" d="M2908,827.84c-3.45,11.06-7.93,24.62-7.93,24.62s6.11,9.1,19.36,5.77c-6.2-.84-12.72-3.15-12.4-11.21S2908,827.84,2908,827.84Z"/><path class="cls-12" d="M2950,818.5a3,3,0,0,1-3.69-.52c-.23-.24-5.92-6-11.74-2.64a3,3,0,1,1-3-5.21c8-4.58,16,.41,19.11,3.69a3,3,0,0,1-.1,4.26A3.22,3.22,0,0,1,2950,818.5Z"/><path class="cls-12" d="M2878.7,825.28a3,3,0,0,0,3.48-1.33c.18-.28,4.45-7.15,10.87-5.17a3,3,0,0,0,1.77-5.75c-8.76-2.71-15.48,4-17.8,7.84a3,3,0,0,0,1,4.13A2.77,2.77,0,0,0,2878.7,825.28Z"/><path class="cls-12" d="M2993.7,835.25c-3.57-15.62-16.42-9.2-22.58-29.47s-11.69-35.45-30.46-27.59-24.51,4.32-33.46,1.5c-26.92-8.5-31.49,36.24-31.49,36.24s-22.49-33-5.48-54.33c18.86-23.65,26.77-9.76,44.82-27.44s50.24-15.87,59.3-4.46c9.55,12,12.91,21.44,33.37,26.74s33.2,19,20.6,42.42,18.76,31.23-5.76,55.82c-9.52,9.53-28.34,15.56-32.32,12.26C2984.92,862.52,2996,845.32,2993.7,835.25Z"/><path class="cls-12" d="M2875.57,843.69s5.66,20.94,11.15,26.89c.5-10.16,15.93-2.62,23.07-3.9,17.24-3.09,40.26-18.37,51.14,5.5,22.26,0,28.47-48.61,28.47-48.61,16.58,48-7.47,85.35-61,93.55C2893.2,922.53,2871.31,879.69,2875.57,843.69Z"/><path class="cls-3" d="M2985.76,825.26c-6.39,8.62-5.85,19.85,1.21,25.08s18,2.48,24.35-6.15,5.85-19.85-1.21-25.08S2992.15,816.63,2985.76,825.26Z"/><path class="cls-7" d="M2996.44,845.61a2.4,2.4,0,0,1-1-.44c-4.3-3.3-5.9-7.9-4.28-12.31a11.32,11.32,0,0,1,10.79-7.43,2.35,2.35,0,0,1-.22,4.69,6.7,6.7,0,0,0-6.17,4.35c-.89,2.46.08,4.93,2.74,7a2.35,2.35,0,0,1-1.88,4.17Z"/><path class="cls-7" d="M2921.69,882.05a22.57,22.57,0,0,1-4.3,1c-10.83,1.45-19.39-5.17-19.75-5.45a2.56,2.56,0,0,1,3.16-4h0c.07.06,7.29,5.59,16,4.41,5.65-.78,10.78-4.23,15.25-10.27a2.56,2.56,0,1,1,4.11,3C2931.89,876.48,2927.05,880.26,2921.69,882.05Z"/><polygon class="cls-8" points="2957.45 951.96 2990.11 975.03 3007.57 926.09 2998.64 914.48 2957.45 951.96"/><polygon class="cls-8" points="2957.45 951.96 2937.35 978.76 2911.15 939.26 2916.64 925.68 2957.45 951.96"/><g id="с"><path id="с-2" data-name="с" class="cls-10" d="M2525.25,1536.52h29.11a0,0,0,0,1,0,0v240.65a14.07,14.07,0,0,1-14.07,14.07h-1a14.07,14.07,0,0,1-14.07-14.07V1536.52A0,0,0,0,1,2525.25,1536.52Z"/><path id="с-3" data-name="с" class="cls-10" d="M2627.37,1536.52h29.11a0,0,0,0,1,0,0v240.65a14.07,14.07,0,0,1-14.07,14.07h-1a14.07,14.07,0,0,1-14.07-14.07V1536.52A0,0,0,0,1,2627.37,1536.52Z"/><path id="с-4" data-name="с" class="cls-10" d="M2790.47,1777.64c0,7.51-6.52,13.61-14.55,13.61h0c-8,0-14.56-6.1-14.56-13.61V1536.52h29.11Z"/><path id="с-5" data-name="с" class="cls-10" d="M2863.48,1536.52h29.11a0,0,0,0,1,0,0v240.65a14.07,14.07,0,0,1-14.07,14.07h-1a14.07,14.07,0,0,1-14.07-14.07V1536.52A0,0,0,0,1,2863.48,1536.52Z"/><path id="с-6" data-name="с" class="cls-1" d="M2717,1153.86v306.83a6.32,6.32,0,0,1-6.32,6.33H2520.45a34.75,34.75,0,0,0-34.76,34.75h0a34.75,34.75,0,0,0,34.76,34.75h231.32a34.75,34.75,0,0,0,34.75-34.75V1153.86a34.75,34.75,0,0,0-34.75-34.76h0A34.76,34.76,0,0,0,2717,1153.86Z"/><rect id="с-7" data-name="с" class="cls-1" x="2751.77" y="1119.1" width="150.41" height="353.55"/><path id="с-8" data-name="с" class="cls-10" d="M2867.43,1153.86v306.83a6.32,6.32,0,0,1-6.32,6.33H2670.86a34.75,34.75,0,0,0-34.75,34.75h0a34.75,34.75,0,0,0,34.75,34.75h231.32a34.75,34.75,0,0,0,34.76-34.75V1153.86a34.76,34.76,0,0,0-34.76-34.76h0A34.75,34.75,0,0,0,2867.43,1153.86Z"/></g><g id="c-3" data-name="c"><path class="cls-14" d="M2630.12,1106.14c-38.33,11.65-57.41,92.35-73.74,176.83-22.05,28.94-45.7,44.84-80.26,79,23.42,5.31,48.21-.91,48.21-.91s63.68.55,91.31-59.66c6.32-13.78,8.47-41.51,12.06-53.83C2629.27,1208.91,2630.12,1106.14,2630.12,1106.14Z"/><path class="cls-3" d="M2405.87,1749.63l-34.53,8.75-14.1-30.76c1.47-1.08,3.73-21.52,5.12-37.08l55.73,7.68C2415.36,1713.93,2410.75,1734.46,2405.87,1749.63Z"/><path class="cls-11" d="M2344.94,1767.76s-11.94-20.07-27.07-21.33c0,0-28.55,1.63-38.56,13.64-3.15,3.77-1.94,11.81-.69,17,.77,3.21,3.5,6.71,11.94,9.36,12.46,3.92,29.27,6.32,60.24-1.7,37.15-9.63,43.08-5.67,56.81-10.09,14.23-4.59,9.65-22,5.77-38.92C2413.38,1735.69,2403,1756.42,2344.94,1767.76Z"/><path class="cls-12" d="M2356.31,1724.62a144.57,144.57,0,0,1-38.26,15c-12.14,2.78-44.47,9-39.26,30.61.78,3.22,3.5,6.71,11.94,9.36,12.46,3.92,29.27,6.33,60.24-1.7,37.15-9.63,43.08-5.67,56.81-10.09,14.23-4.59,7.66-24.33,3.78-41.27h0c-.35,4.3-2.34,15.58-28.15,25.69C2375.7,1755.26,2382,1721.28,2356.31,1724.62Z"/><path class="cls-13" d="M2361.13,1750.59a2.94,2.94,0,0,1-2.65-2.22c-2.62-10.54-13.52-11.29-14-11.32a2.93,2.93,0,0,1,.3-5.86c5.42.26,16.42,3.91,19.37,15.76a2.93,2.93,0,0,1-2.13,3.56A3.15,3.15,0,0,1,2361.13,1750.59Z"/><path class="cls-13" d="M2347.52,1756a2.91,2.91,0,0,1-2.65-2.21c-2.63-10.55-13.52-11.29-14-11.32a2.93,2.93,0,0,1,.3-5.86c5.41.26,16.42,3.9,19.37,15.76a2.93,2.93,0,0,1-2.14,3.55A2.52,2.52,0,0,1,2347.52,1756Z"/><path class="cls-3" d="M2540.75,1762.64l-33.83,11.15-16.23-29.68c1.39-1.19,6.25-22.78,6.54-38.4l52.09,4.79C2547.7,1726.35,2544.55,1747.16,2540.75,1762.64Z"/><path class="cls-11" d="M2596.9,1377.57c-77.13,14.08-186.66,64-197.47,75.4-22.32,23.48-33.24,104.22-43.77,248l67.5,4.5c24.91-112.33,48.35-161.31,52.18-206.94,0,0,59.14,4.1,148.14-30.25,43.88-16.93,89.6-36.68,76.44-76.32C2689.43,1360.4,2670.43,1364.13,2596.9,1377.57Z"/><path class="cls-12" d="M2683.15,1384.28c-64.07,6.62-149.54,79.94-160.34,91.31-22.32,23.47-25.13,103.64-35.66,247.44l67.18,6.19c10.87-74.5,42.66-159.85,42.57-214.55,0,0,60.13-13,153.2-34,50.91-11.45,66.19-19.34,75.93-52.59,3.31-11.31,7.8-37.51,2.72-43.36C2806.27,1358.87,2743.81,1378,2683.15,1384.28Z"/><path class="cls-11" d="M2481.24,1785s-13.32-19.18-28.5-19.38c0,0-28.36,3.64-37.51,16.32-2.87,4-1.1,11.93.51,17,1,3.15,4,6.44,12.57,8.5,12.71,3,29.64,4.25,60-5.94,36.38-12.22,42.57-8.68,56-14.06,13.87-5.58,8.08-22.6,3-39.23C2547.26,1748.2,2538.39,1769.61,2481.24,1785Z"/><path class="cls-12" d="M2489.55,1741.17a144.31,144.31,0,0,1-37.11,17.68c-11.91,3.63-43.72,12.16-37,33.29,1,3.16,4,6.45,12.57,8.5,12.71,3,29.65,4.25,60-5.94,36.38-12.21,42.57-8.68,55.95-14,13.88-5.58,5.94-24.81.87-41.44h0c-.05,4.32-1.24,15.71-26.27,27.61C2511.05,1770.37,2514.94,1736,2489.55,1741.17Z"/><path class="cls-13" d="M2501.86,1767.86a2.93,2.93,0,0,1-2.65-2.22c-2.62-10.54-13.52-11.28-14-11.31a2.93,2.93,0,0,1,.3-5.86c5.42.25,16.42,3.9,19.37,15.76a2.92,2.92,0,0,1-2.14,3.55A2.75,2.75,0,0,1,2501.86,1767.86Z"/><path class="cls-13" d="M2488.24,1773.32a2.92,2.92,0,0,1-2.64-2.22c-2.63-10.54-13.52-11.29-14-11.32a2.93,2.93,0,0,1,.3-5.85c5.42.25,16.43,3.9,19.38,15.76a2.93,2.93,0,0,1-2.14,3.55A3.12,3.12,0,0,1,2488.24,1773.32Z"/><polygon id="v-2" class="cls-3" points="2725.47 1041.55 2725.44 1041.55 2699.87 1041.65 2694.08 1102.03 2723.92 1117.79 2755.75 1102.21 2750.61 1041.65 2725.47 1041.55"/><path class="cls-12" d="M2727.9,1033.19c22.5,6.32,39.08-21.08,39.08-21.08,14.4-.11,14.23-14.47,14.23-14.47,7-1,17-6.76,16.11-19.92-.73-11.14-11.36-12.29-10.75-25.11.5-10.28,11.65-33.94-20.34-40.92,0,0,2.15-18.92-16.54-26.46-22.91-9.23-31,4.14-41.85,5.07-12.09,1-35.44-13.59-42.93,12.85,0,0-16.68-2.22-26.21,8.68-8.89,10.15-7,25.21-3,31.25,0,0-14,2.45-19.07,14.6-3.38,8.14-1.8,19.6,5.8,26.23a25,25,0,0,0,9.88,5.33c5.31,1.74,3.36,16.36,7.72,19.93a111.59,111.59,0,0,0,22.95,14.09Z"/><path class="cls-3" d="M2769.81,997.56c-1.47,42.32-34.63,78.8-67.87,77.64s-54-39.5-52.5-81.83,29.61-75.7,62.85-74.54S2771.29,955.23,2769.81,997.56Z"/><path d="M2668.79,1008.76a5.79,5.79,0,1,1-4.09-7.08A5.78,5.78,0,0,1,2668.79,1008.76Z"/><path d="M2716.6,1007a6.26,6.26,0,1,1-4.42-7.67A6.25,6.25,0,0,1,2716.6,1007Z"/><path class="cls-7" d="M2687.27,1008.55c-5.27,8.45-11.94,18.76-11.94,18.76s3.1,8.9,14.85,9c-5-2-9.9-5.39-7.88-12S2687.27,1008.55,2687.27,1008.55Z"/><path class="cls-12" d="M2722.58,998.91a3.45,3.45,0,0,0,.61-.3,2.89,2.89,0,0,0,.83-4c-2.38-3.64-9.09-9.75-17.38-6.8a2.89,2.89,0,1,0,1.93,5.44c6.14-2.18,10.58,4.46,10.62,4.53A2.91,2.91,0,0,0,2722.58,998.91Z"/><path class="cls-12" d="M2667.21,996a2.36,2.36,0,0,0,1-.72,2.41,2.41,0,0,0-.31-3.39,11.85,11.85,0,0,0-8.76-2.47c-3.28.54-6.09,2.69-8.36,6.39a2.4,2.4,0,1,0,4.1,2.51c1.51-2.45,3.2-3.85,5-4.15a6.91,6.91,0,0,1,4.9,1.42A2.43,2.43,0,0,0,2667.21,996Z"/><path class="cls-12" d="M2639,951.15l71.11-46.66,73.66,52.7-18.52,56.06c2-26.89-15.61-20.77-22.85-29.8s-9.2-22-30.91-14.18c0,0-14.6-13.67-25.34.88-8.3,11.24-16.72,7.58-25.56,6.9-10.43-.79-9.49,9.6-15.74,8.32Z"/><path class="cls-3" d="M2760.46,994.23c-6.52,7.53-6.8,18-.64,23.29s16.44,3.55,23-4,6.8-18,.63-23.29S2767,986.69,2760.46,994.23Z"/><path class="cls-7" d="M2768.91,1013.8a2,2,0,0,1-.87-.48c-3.75-3.34-4.91-7.71-3.1-11.68a10.48,10.48,0,0,1,10.5-6.12,2.18,2.18,0,0,1-.53,4.33,6.21,6.21,0,0,0-6,3.59c-1,2.21-.28,4.57,2,6.64a2.18,2.18,0,0,1-2,3.72Z"/><path class="cls-8" d="M2677.18,1052.41a1.92,1.92,0,0,1,1.4-3.23,135.92,135.92,0,0,0,35.86-4.07,1.92,1.92,0,0,1,2.09,2.84c-2.61,4.49-8.24,11.5-18.49,12.67S2680.73,1056.21,2677.18,1052.41Z"/><g id="v"><path id="v-25" class="cls-15" d="M2779.15,1117.11a165.45,165.45,0,0,0-57.68-8.6c-66.34,0-76.5,16.76-76.5,16.37l49.23,135.19,27.27,13.45,29.84-8.84S2790,1121.14,2779.15,1117.11Z"/><path class="cls-5" d="M2828.74,1385.91s-53.5,5.52-103.64,5.85c-50.13-.36-103.63-10.09-103.63-10.09s6.73-92.07,6.05-127.43c-1-40.6,2.6-94.44,2.6-148.1,0,0,35.56-5.72,55.62-8.19,3.26-.41,6.11-.72,8.34-.92,0,0,11.43,24,61.23,0a63,63,0,0,1,9.48,0c20.92,1.25,54.62,9.14,54.62,9.14,0,53.52,2.16,106,1.43,146.56C2823.07,1288.92,2828.74,1385.91,2828.74,1385.91Z"/></g><g id="c-4" data-name="c"><path class="cls-3" d="M2696.84,1222.14l-12.14-7s-3.36-17.21-22.85-17.63c2.23,7.23,5.45,17.63,5.45,17.63s-9.6,7.45-32.35-5.3c-22.24-5-12.74,11.22-20.12,12.39-10.87,1.71,7.93,23.09,30.14,26.36,28.74,4.23,32.15-1.65,32.15-1.65l16.26,5.68Z"/><path id="c-5" data-name="c" class="cls-14" d="M2809.16,1240.53c-40.57-2.84-109.78-22.87-109.78-22.87-11.07,17-8,39.54-8,39.54,63,55.24,157.82,73.1,186.91,59.8,26.56-12.13,7.81-173.82-58.88-210.86l-2.31.22C2794.23,1145,2809.16,1240.53,2809.16,1240.53Z"/></g><path class="cls-14" d="M2764.79,1097h0c-3.47,5.78-8.37,10.15-15.28,13.63-11,5.52-25.82,7.87-35,7.15-7.25-.57-15.3-3.53-20.45-7.61-5.47-4.35-7.85-9.89-8.34-12.23,3.26-.41,6.61-.92,8.84-1.11,0,0,10.93,24.17,60.73.19A63,63,0,0,1,2764.79,1097Z"/></g><path class="cls-16" d="M3058.68,1391.76h-855a18.62,18.62,0,0,1-18.63-18.62h0a18.63,18.63,0,0,1,18.63-18.62h855a18.62,18.62,0,0,1,18.62,18.62h0A18.61,18.61,0,0,1,3058.68,1391.76Z"/><rect class="cls-16" x="2209.3" y="1380.69" width="32.47" height="410.56" rx="15.94"/><path class="cls-16" d="M3038.6,1380.69h.58a15.94,15.94,0,0,1,15.94,15.94V1775.3a15.94,15.94,0,0,1-15.94,15.94h-.58a15.95,15.95,0,0,1-15.95-15.95V1396.63A15.95,15.95,0,0,1,3038.6,1380.69Z"/><path class="cls-17" d="M2600.64,1354.86H2386.19l-42.33-134.59a9.66,9.66,0,0,1,9.21-12.55h194.22a9.66,9.66,0,0,1,9.2,6.76Z"/><path class="cls-18" d="M2584.37,1354.86H2369.93l-42.33-134.59a9.65,9.65,0,0,1,9.2-12.55H2531a9.65,9.65,0,0,1,9.2,6.76Z"/><path class="cls-19" d="M2458.12,1283.94c2.36,8.32-1.84,16.79-9.39,18.94s-15.58-2.86-17.95-11.17,1.85-16.79,9.4-18.94S2455.76,1275.63,2458.12,1283.94Z"/><path class="cls-17" d="M2722.47,1340.8h-138.1v13.72h151.82A13.73,13.73,0,0,0,2722.47,1340.8Z"/><path class="cls-1" d="M2267,1262h57a9,9,0,0,1,9,9v83.56a0,0,0,0,1,0,0h-75a0,0,0,0,1,0,0V1271A9,9,0,0,1,2267,1262Z"/><path class="cls-1" d="M2263.72,1345.79h-16.88a15.76,15.76,0,0,1-15.75-15.75v-30.43a15.76,15.76,0,0,1,15.75-15.75h14a7,7,0,0,1,0,14h-14a1.77,1.77,0,0,0-1.77,1.77V1330a1.77,1.77,0,0,0,1.77,1.77h16.88a7,7,0,1,1,0,14Z"/><path class="cls-3" d="M2869.78,1215.74c9.59-4.58,20.31-7.28,23.58-21,0,0,26-6.89,53.15-12.94,0,0-33.11-30.34-33.13-30.33-10.76,3.64-30.62,17-42.77,17.36-3.16.08-6.33,0-9.5,0-7.72-.06-15.76-1-24,5.13-32,23.55-44.48,19.55-45.78,22.27-1.07,4.25,7.53,12.35,23.82,4.19,15.77-7.89,24.14-8,24.14-8s-.27,13.76,5.2,17.71C2846.93,1212,2858.57,1221.1,2869.78,1215.74Z"/><path class="cls-11" d="M2901.14,1150.36s84.85-40.92,149.36-54.17c-8.92-32.28,5.63-181.43,5.63-181.43s43.57,10.69,65.2,91.48-28,163-28,163-133.78,37.18-181.63,23.58C2904.22,1190.69,2901.14,1150.36,2901.14,1150.36Z"/><path class="cls-2" d="M993.9,1660.66l38.91,124c1,3.31,2.77,5.29,4.62,5.29h0c3.43,0,6-6.62,5.51-13.94l-8.47-115.4Z"/><path class="cls-2" d="M635.1,1660.66l-38.91,124c-1,3.31-2.76,5.29-4.61,5.29h0c-3.43,0-6.05-6.62-5.52-13.94l8.48-115.4Z"/><path class="cls-2" d="M450.05,1660.66l-38.91,124c-1,3.31-2.77,5.29-4.62,5.29h0c-3.43,0-6-6.62-5.51-13.94l8.47-115.4Z"/><path class="cls-10" d="M673,1366.22h359a33.89,33.89,0,0,1,33.89,33.89v221.54a43.58,43.58,0,0,1-43.58,43.58H673a0,0,0,0,1,0,0v-299A0,0,0,0,1,673,1366.22Z"/><path class="cls-2" d="M586,1366.22H945a33.89,33.89,0,0,1,33.89,33.89v221.54a43.58,43.58,0,0,1-43.58,43.58H586a0,0,0,0,1,0,0v-299A0,0,0,0,1,586,1366.22Z"/><path class="cls-10" d="M510,1198H768.18a31.47,31.47,0,0,1,31.47,31.47v212.4a0,0,0,0,1,0,0H510a0,0,0,0,1,0,0V1198A0,0,0,0,1,510,1198Z"/><path class="cls-20" d="M478.81,1436.72H939.88a39.73,39.73,0,0,1,39.73,39.73v45.82a0,0,0,0,1,0,0H478.81a0,0,0,0,1,0,0v-85.56A0,0,0,0,1,478.81,1436.72Z"/><rect class="cls-10" x="478.81" y="1512.34" width="500.8" height="153.11"/><path class="cls-2" d="M441.76,1198H510a0,0,0,0,1,0,0v243.88a0,0,0,0,1,0,0H409.24a0,0,0,0,1,0,0V1230.49A32.52,32.52,0,0,1,441.76,1198Z"/><path class="cls-11" d="M715.18,930.83a48.45,48.45,0,1,1-48.45-48.46A48.45,48.45,0,0,1,715.18,930.83Z"/><path class="cls-12" d="M790.11,1067.32c22.83-22.11,46.81-114.87-16.6-142.91-60-26.54-135.7,10.56-138.59,74.27s45.78,94.63,45.78,94.63Z"/><path class="cls-3" d="M1067,1623.26l19.12,26.75s17.08,21.76,37.44,11.54,11.33-42.91,11.33-42.91l-23.39-30.8Z"/><path class="cls-12" d="M1134.11,1615.1a153.33,153.33,0,0,0,42.89-7.81c12.5-4.25,45.15-16.64,52.49,5.71,1.09,3.33.58,8-5.55,15.11-9,10.49-22.87,22-55.28,32.07-38.88,12-42,18.93-56.86,22.6-15.39,3.81-20.49-17.66-26.44-35.11h0c2.72,3.68,10.81,12.75,39.72,7.46C1133.72,1653.55,1109.08,1626.42,1134.11,1615.1Z"/><path class="cls-3" d="M905.09,1715.21v18.14s1.24,27.63,23.74,31.16S963,1736.19,963,1736.19l-.83-28.57Z"/><path class="cls-14" d="M818.88,1263.42c-11-.09-33.47,40.15-31.56,43.49,26.61,29.51,130.56,32.54,130.56,32.54l12.48-12.81S868.59,1298.31,818.88,1263.42Z"/><path class="cls-14" d="M720.31,1171.21c10.1,30.41,56,132,67,135.7l31.56-43.49s-47.78-106.63-56-122.53C748.64,1113.33,703.71,1121.61,720.31,1171.21Z"/><path class="cls-3" d="M723.14,1071.46s4.38,39.26,6.21,53.69l-51.26,13c-6.59-44-7.09-99.32-7.09-99.32Z"/><path class="cls-3" d="M669.3,1014.25c-2.53,47.15,25.44,87,62.47,89s69.09-34.62,71.62-81.76-25.44-87-62.46-89S671.83,967.11,669.3,1014.25Z"/><path d="M783.76,1028.2a6.45,6.45,0,1,0,5.24-7.46A6.44,6.44,0,0,0,783.76,1028.2Z"/><path d="M731.65,1025.76a7,7,0,1,0,5.67-8.08A7,7,0,0,0,731.65,1025.76Z"/><path class="cls-12" d="M725.89,1018a2.41,2.41,0,0,0,1.4-.78c5.5-6.24,15-5,15.08-5a2.43,2.43,0,0,0,.71-4.8c-.49-.07-12.16-1.71-19.43,6.54a2.41,2.41,0,0,0,.22,3.42A2.38,2.38,0,0,0,725.89,1018Z"/><path class="cls-12" d="M799.9,1023.24a2.31,2.31,0,0,0,.75-.26,2.43,2.43,0,0,0,1-3.3,17,17,0,0,0-15-8.79,2.43,2.43,0,0,0,.2,4.85,12.17,12.17,0,0,1,10.58,6.28A2.42,2.42,0,0,0,799.9,1023.24Z"/><path class="cls-7" d="M775.79,1040.46c2.36,4.5,4.26,9,6.9,12a2.57,2.57,0,0,1-.17,3.51c-4,3.86-12.76,5.41-18,6a.68.68,0,0,1-.36-1.3c6-2.74,8.9-5.19,10.25-6.62a3,3,0,0,0,.78-2.64c-.41-2.21-1.18-6.69-1.52-10.3A1.15,1.15,0,0,1,775.79,1040.46Z"/><path class="cls-7" d="M745.24,1082.77c-16.82-5-20.75-17.53-20.94-18.2a2.68,2.68,0,0,1,5.13-1.53c.22.71,5.47,16.65,31.65,16.39a2.68,2.68,0,0,1,0,5.36A54.07,54.07,0,0,1,745.24,1082.77Z"/><path class="cls-12" d="M664.05,1014.1c42.9,6.73,118.67-22.16,129.82-42.33-.29-28.29-39-53.94-66.52-49.06S656.26,976.3,664.05,1014.1Z"/><path class="cls-3" d="M685.85,1011.07c6.46,9,5.71,20.63-1.68,25.92s-18.62,2.25-25.08-6.78-5.7-20.64,1.69-25.92S679.39,1002,685.85,1011.07Z"/><path class="cls-7" d="M674.45,1031.93a2.46,2.46,0,0,0,1-.44c4.5-3.33,6.23-8.06,4.64-12.66a11.68,11.68,0,0,0-11-7.86,2.43,2.43,0,1,0,.14,4.85,6.92,6.92,0,0,1,6.3,4.6c.89,2.56-.16,5.11-2.94,7.17a2.43,2.43,0,0,0,1.86,4.34Z"/><path class="cls-18" d="M742.48,1454.15l218.39-9.33s10.78-54.5,2.67-76.12-208.76-17.15-208.76-17.15Z"/><path class="cls-17" d="M678.25,1314.2c-5.92,13.67-29,54.38-26.75,87.38,2.3,34.05,26.33,63.7,67,63.06,0,0,76.65-43.57,60.06-132.83C778.55,1331.81,738.42,1316.14,678.25,1314.2Z"/><path class="cls-17" d="M712.43,1472.41l192.38,18.15s66-27.85,65.61-51.5-194.21-88.36-194.21-88.36C662.53,1317.55,624.63,1458.64,712.43,1472.41Z"/><path class="cls-17" d="M970.42,1439.06l-3.86,271.35s-48,20.24-64.85.16c-7.94-92.1-45.76-173.69-3.54-229.83C954.72,1405.55,970.42,1439.06,970.42,1439.06Z"/><path class="cls-18" d="M963.08,1368.07l160.09,219.85s-35.73,47.75-60.68,42.16c-43-54.47-130.15-118.33-130.7-186.88C931,1351.4,963.08,1368.07,963.08,1368.07Z"/><path class="cls-5" d="M675.86,1121l53.88-.59c24.73,28.75,49.83,53.45,54.27,73.09,5.84,25.86,4.75,165.52,4.75,165.52-45.33,16.6-96,1.81-129-10.46,8.29-68.73-46.91-146-14.79-198.3C653,1137.18,663.64,1131,675.86,1121Z"/><path class="cls-12" d="M964.42,1732.85a153.47,153.47,0,0,0,39.43,18.59c12.64,3.81,46.41,12.73,39.38,35.17-1,3.35-4.19,6.85-13.3,9.06-13.47,3.27-31.43,4.63-63.63-6.06-38.63-12.81-45.18-9-59.4-14.68-14.73-5.86-6.39-26.29-1.09-43.94h0c.07,4.58,1.38,16.66,28,29.17C941.73,1763.9,937.47,1727.5,964.42,1732.85Z"/><path class="cls-12" d="M782.5,1370.43H957l34.45-109.53a7.86,7.86,0,0,0-7.49-10.21H825.92a7.85,7.85,0,0,0-7.49,5.49Z"/><path class="cls-13" d="M795.74,1370.43h167a10.23,10.23,0,0,0,9.74-7.15l32.2-102.38a7.86,7.86,0,0,0-7.49-10.21H839.16a7.85,7.85,0,0,0-7.49,5.49Z"/><path class="cls-21" d="M898.48,1312.72c-1.92,6.76,1.5,13.66,7.64,15.41s12.69-2.33,14.61-9.09-1.5-13.67-7.64-15.42S900.4,1306,898.48,1312.72Z"/><path class="cls-12" d="M689.29,1354.21H795.74a0,0,0,0,1,0,0v3.56a12.38,12.38,0,0,1-12.38,12.38H689.29a0,0,0,0,1,0,0v-15.95A0,0,0,0,1,689.29,1354.21Z" transform="translate(1485.02 2724.36) rotate(180)"/><path class="cls-3" d="M775.41,1362.21c-12.5-.1-28.91,2.27-28.52-4.2s6.82-8.85,7.6-16.63c.69-6.89-22.48-5.12-37.13,17.65l-4.31-2.39-12.4,21.09,7.84,2.91c13.25,15.92,53.18,24.07,76.66,11.64C808.92,1379.7,787.9,1362.32,775.41,1362.21Z"/><path class="cls-14" d="M626,1158.21c-15.39,33.84-72.09,110.7-59.72,153.23,8.66,29.77,136.92,73.35,136.92,73.35l12.19-31.06-89.13-66.32s52-101.44,57.42-120.63C693.13,1133.24,650.21,1105,626,1158.21Z"/><path class="cls-5" d="M672.47,1101.51l1.25,21.19h56v-16.93S692.25,1104.24,672.47,1101.51Z"/><path class="cls-10" d="M496.24,1366.22H714.42a33.89,33.89,0,0,1,33.89,33.89v221.54a43.58,43.58,0,0,1-43.58,43.58H496.24a0,0,0,0,1,0,0v-299a0,0,0,0,1,0,0Z"/><path class="cls-2" d="M409.24,1366.22H627.42a33.89,33.89,0,0,1,33.89,33.89v221.54a43.58,43.58,0,0,1-43.58,43.58H409.24a0,0,0,0,1,0,0v-299A0,0,0,0,1,409.24,1366.22Z"/><path class="cls-17" d="M191,1714.66c-16.5,69.25-75.45,31.16-63.12,74.93a7.83,7.83,0,0,0,7.33,5.51l34.61,1.33a15.55,15.55,0,0,0,9.39-2.72c18.27-12.5,30.66-30.11,70.1-32.25-.3-16.84.46-40.88-5.1-49.48Z"/><path class="cls-11" d="M282.21,1228.66S181.54,1382.21,167.64,1430s15.17,128.69,9.91,291.79c31.47,8.17,73.42,1.14,73.42,1.14s25.25-204.57-4.45-252.88c44.51-67.91,156.29-216.15,156.29-216.15Z"/><path class="cls-17" d="M338,1737c-25.62,34.87-89.56,14.25-87,61,96.91-1.54,137.2-1.33,137.2-1.33-.23-10.75-2.4-36.26-4.73-46.23Z"/><path class="cls-12" d="M308,1197.62s-32.1,250.51-24.69,299.7,30.37,87.68,31.18,250.86c31.74,7,80.26,13.28,80.26,13.28s20.46-196.82-21.62-251c11.92-80.31,68.76-282.3,68.76-282.3Z"/><path class="cls-14" d="M143.55,1087.34l-39.13-43.88a4.59,4.59,0,0,0-3.34-1.52l-32.22-.19c-.92,0-3.76,5.08-3.15,5.76L93.32,1072a1.12,1.12,0,0,0,.47.3l47.34,17.56C142.15,1090.21,144.26,1088.13,143.55,1087.34Z"/><path class="cls-5" d="M140.56,1090.28l-37.28-41.37a4.57,4.57,0,0,0-3.34-1.52l-33.22-.6a1.05,1.05,0,0,0-.79,1.76l26.25,28.94a1.12,1.12,0,0,0,.47.3l46.83,14.2A1,1,0,0,0,140.56,1090.28Z"/><path class="cls-3" d="M214.23,1128l-27-13.22s-26.6-26.91-30.55-32.93c-5.92-3-17.11-10.53-19.63-10.82a41.33,41.33,0,0,0-7.67.49l12.48,14.2s-5.93,1.18-13.49-3.62-20.93-17.7-27.47-15.2l-2.32,2s-4.14-4.41-8-2.77,3.85,21.07,25.84,41.67c1.45,5.5,8.7,15.13,8.7,15.13l44.46,15.62Z"/><path class="cls-14" d="M97.2,1055.15c1.58,1.58,3.85,1.87,5.08.65s.93-3.49-.65-5.07-3.85-1.87-5.07-.65S95.62,1053.57,97.2,1055.15Z"/><path class="cls-3" d="M339.79,929.74c-8,10.37,54.67,21.65,63.07.1s-6-80.83-6-80.83L339.7,861.14S350.21,916.25,339.79,929.74Z"/><ellipse class="cls-3" cx="344.14" cy="807.47" rx="65.55" ry="83.46" transform="translate(-82.39 40.33) rotate(-5.99)"/><path d="M300.22,827.81a6.83,6.83,0,1,1-4.12-8.73A6.82,6.82,0,0,1,300.22,827.81Z"/><path d="M345,818a7.38,7.38,0,1,1-4.45-9.45A7.37,7.37,0,0,1,345,818Z"/><path class="cls-7" d="M313.25,826.38c-1.45,10.75-3.46,24-3.46,24s7.06,7.44,18.77,2.3c-5.86.19-12.23-.93-13.2-8.41S313.25,826.38,313.25,826.38Z"/><path class="cls-11" d="M298.21,812.23a2.62,2.62,0,0,1-2.59.06,7.55,7.55,0,0,0-5.59-.48c-1.87.72-3.38,2.56-4.46,5.48a2.62,2.62,0,0,1-4.91-1.82c1.65-4.43,4.2-7.32,7.58-8.58,4.95-1.85,9.68.69,9.88.79a2.62,2.62,0,0,1,1,3.56A2.66,2.66,0,0,1,298.21,812.23Z"/><path class="cls-11" d="M332.26,804.77a2.6,2.6,0,0,0,2.46-.8,7.66,7.66,0,0,1,5.12-2.29c2,.06,4,1.31,6,3.71a2.62,2.62,0,0,0,4-3.34c-3-3.64-6.37-5.53-10-5.61-5.28-.11-8.92,3.84-9.07,4a2.6,2.6,0,0,0,.19,3.69A2.65,2.65,0,0,0,332.26,804.77Z"/><path class="cls-11" d="M396,829.74c-23.72-19.85-17.17-50.19-17.17-50.19-11.51.75-14.73,5.67-14.73,5.67-9.25-10.62-7-20.62-7-20.62-24.92-2.72-32.22,14.91-51.25,25.32-26.05,14.25-63.47,12.4-75.86-20.75a6,6,0,0,1,7.61-7.81,26.46,26.46,0,0,0,16.38.35,28.35,28.35,0,0,1-10.37-14,6,6,0,0,1,8.38-7.11c7.09,3.26,19.07,4.93,37.27-3.83,12.11-5.82,35.81-34.12,55.07-35,15.75-.75,31,8.73,40.92,25.48,0,0,37.57-6.06,52.08,33.18,14.24,38.55-39.16,98.11-39.16,98.11S402.22,835.85,396,829.74Z"/><path class="cls-8" d="M316.15,870.18a2,2,0,0,1,.6-3.64,168.69,168.69,0,0,0,18.13-5.45,170.62,170.62,0,0,0,17.25-7.81,2,2,0,0,1,2.85,2.34c-1.5,5.23-5.44,13.79-15.55,17.58S320.72,873.13,316.15,870.18Z"/><path class="cls-3" d="M379.06,802.74c-7.72,7.61-8.92,18.9-2.69,25.22s17.53,5.26,25.25-2.35,8.92-18.91,2.69-25.22S386.77,795.13,379.06,802.74Z"/><path class="cls-7" d="M386.55,824.71a2.41,2.41,0,0,1-.91-.6c-3.77-4-4.65-8.79-2.36-13a11.43,11.43,0,0,1,11.93-5.73,2.37,2.37,0,0,1-.95,4.65,6.76,6.76,0,0,0-6.83,3.38c-1.28,2.31-.7,4.93,1.64,7.38a2.37,2.37,0,0,1-2.52,3.87Z"/><path class="cls-18" d="M270.15,1247.05c44.69,9.12,125.05,24.87,167.55,8.3,16.09-23.09,20.16-153.67,20.16-153.67,4.65-134.4-11.46-154.34-47.81-199.37-15.26,7-53.43,13-70.22,13.11,0,0-38,52.81-45.45,91.15-7.53,38.88-8.38,108-9.08,147.6C284.53,1198.15,275.84,1219.35,270.15,1247.05Z"/><path class="cls-17" d="M415.34,943.11c26.15,50.89,20.23,107.25-55.79,218.21-53.24-4.64-63.68-49-63.68-49s14.63-55.09,33.63-124.39S403.9,920.83,415.34,943.11Z"/><path class="cls-17" d="M182.93,1101.68l114,9.1s48.89-8.92,62.64,50.54c-24.47,19-87.63,26.19-191.22-12.26C179.3,1134.14,182.93,1101.68,182.93,1101.68Z"/><polygon class="cls-8" points="340.17 911.65 339.09 942.31 416.21 909.97 406.87 885.17 340.17 911.65"/><g id="c-6" data-name="c"><polygon id="v-2-2" data-name="v-2" class="cls-3" points="1603.65 872.15 1603.69 872.15 1631.7 872.25 1638.04 938.41 1605.34 955.68 1570.47 938.61 1576.11 872.25 1603.65 872.15"/><path class="cls-3" d="M1544.84,827.74c6.75,45.91,41.46,78.82,77.51,73.52s59.81-46.82,53.06-92.73S1634,729.71,1597.9,735,1538.09,781.83,1544.84,827.74Z"/><path d="M1657.81,818.87a6.34,6.34,0,1,0,3.6-8.22A6.36,6.36,0,0,0,1657.81,818.87Z"/><path d="M1607.14,826.67a6.86,6.86,0,1,0,3.89-8.89A6.86,6.86,0,0,0,1607.14,826.67Z"/><path class="cls-7" d="M1646.1,826.47c6.77,8.56,15.29,19,15.29,19s-2.29,10.07-15.07,11.62c5.17-2.84,10.12-7.08,7.11-14.05S1646.1,826.47,1646.1,826.47Z"/><path class="cls-11" d="M1596,819.76a3,3,0,0,1-.69-.26,3.16,3.16,0,0,1-1.4-4.25c2.16-4.25,8.72-11.72,18.11-9.52a3.16,3.16,0,0,1-1.45,6.16c-7-1.63-11,6.14-11,6.22A3.18,3.18,0,0,1,1596,819.76Z"/><path class="cls-11" d="M1654.48,804.28a2.54,2.54,0,0,1-1.21-.66,2.63,2.63,0,0,1-.08-3.72c.16-.17,3.93-4,9.25-3.76,3.63.19,7,2.19,9.87,5.94a2.64,2.64,0,1,1-4.16,3.24c-1.94-2.49-4-3.81-6-3.92a7.61,7.61,0,0,0-5.17,2.15A2.62,2.62,0,0,1,1654.48,804.28Z"/><path class="cls-11" d="M1529.42,791c-4.53-43.77,35.57-58.72,35.57-58.72s-9.07-3-7.07-16.33a35.18,35.18,0,0,0,21.66,4.69c50-5.66,81.69,2.13,77,21.84-1.68,7,30.74,9.58,16.91,56.14-1.24-3.26-6.11-25.38-15.92-29.77s-3.81,11.55-26,9.37c-22.37-2.2-37-11.26-53.18-2.22-12.89,8.18-32.08,68.5-29,70.61C1539.88,840,1531.41,810.21,1529.42,791Z"/><path class="cls-11" d="M1676.12,833.64s-3.92,25.05-9.28,31.81c-1.34-10.75-11.75-2.19-19.43-3-18.55-1.92-49.55-15.67-59.21,10.53-23.63,1.7-37.39-47.86-37.39-47.86-13.82,52.24,21.91,88.88,79.33,93.36C1668,921.45,1683.48,871.51,1676.12,833.64Z"/><path class="cls-7" d="M1626.18,875a48.2,48.2,0,0,1-10.06-7,2.11,2.11,0,1,1,2.8-3.15c7.42,6.58,14.74,9.7,21.76,9.27a22,22,0,0,0,14-6.52,2.11,2.11,0,0,1,3.18,2.77,25.92,25.92,0,0,1-16.88,7.95A28.46,28.46,0,0,1,1626.18,875Z"/><path class="cls-3" d="M1559.65,819.17c8,7.4,9.59,18.72,3.53,25.28s-17.47,5.86-25.48-1.54-9.59-18.73-3.53-25.29S1551.64,811.76,1559.65,819.17Z"/><path class="cls-7" d="M1552.83,841.51a2.35,2.35,0,0,0,.89-.62c3.67-4.11,4.4-9,2-13.11a11.51,11.51,0,0,0-12.18-5.38,2.38,2.38,0,1,0,1.1,4.64,6.83,6.83,0,0,1,7,3.18c1.36,2.29.86,4.94-1.41,7.48a2.39,2.39,0,0,0,2.66,3.81Z"/><path d="M1654.77,1737.71c24.77,34.17,85.59,13.2,83.58,59.42-92.5-.59-130.94,0-130.94,0,.13-10.61,1.95-35.81,4.09-45.67Z"/><path d="M1516.38,1738.61c24.77,34.17,85.59,13.2,83.58,59.42-92.49-.59-130.94,0-130.94,0,.13-10.62,2-35.81,4.09-45.68Z"/><path class="cls-2" d="M1697.59,1216s15,219,8.92,267.72-27.71,111.12-25.26,272.18c-30.15,7.55-73.84,0-73.84,0s-6.47-182.12,25.4-263.46c-13-79-54.55-260-54.55-260Z"/><path class="cls-10" d="M1640.52,1222s-30.33,245.89-45.17,292.53-27.76,80.8-54.64,239.47c-31,1.55-75.73.59-75.73.59s4-196.58,52.3-242.35c1.64-80.13-7.8-288.66-7.8-288.66Z"/><g id="v-2-3" data-name="v"><path id="h-5" class="cls-5" d="M1500.73,942.92s52.66-18.44,70.23-10c54.57,26.27,67.08,0,67.08,0,17.44,1.5,70.08,10,70.08,10,0,58.78,3.93,117.77,2.86,162.26-.76,38.74,6.63,144.17,6.63,144.17s-58.07,15.22-113,15.61c-54.93-.35-110.83-15-110.83-15s2.93-106.77,5.37-146.46C1498.36,1059,1500.73,1001.55,1500.73,942.92Z"/></g><g id="c-7" data-name="c"><path id="c-8" data-name="c" class="cls-14" d="M1801.74,1030.29c-21.74-51.87-86.25-84.86-93.62-87.37l-15,66.58a389.72,389.72,0,0,1,53.48,38.16c-3.81,18.54-3.17,36.72-13.91,60.17,0,0,9.32-12.87,20.82-5.25,11.18,7.39,31.74-7.71,31.74-7.71S1818.34,1069.91,1801.74,1030.29Z"/></g><g id="c-9" data-name="c"><g id="c-10" data-name="c"><g id="c-11" data-name="c"><path id="c-12" data-name="c" class="cls-10" d="M1789.63,1161.36a5.57,5.57,0,0,0,1.12.23H1792a5.87,5.87,0,0,0,5-4.1l58-186.85a6.29,6.29,0,0,0,.23-1.13c0-.25,0-.49,0-.73s0-.3,0-.45-.06-.25-.08-.38a5.87,5.87,0,0,0-4-4.67,6.51,6.51,0,0,0-1.1-.24,6.63,6.63,0,0,0-1.26,0H1702.83l-58.46,198.55h145.36Z"/><path id="c-13" data-name="c" class="cls-2" d="M1704.16,963.28a5.88,5.88,0,0,0-7.37,3.87l-57.59,186.38-.13.44a5.88,5.88,0,0,0,3.85,7.34h0a5.89,5.89,0,0,0,7.37-3.87L1708,970.64A5.87,5.87,0,0,0,1704.16,963.28Z"/></g></g><path id="c-14" data-name="c" class="cls-3" d="M1814.38,1081.82a5.84,5.84,0,0,1,1.74-.76c-.06-.1-.13-.18-.19-.27-3.63-5.48-3.39-12,.54-14.63a6.24,6.24,0,0,1,2.1-.87c-1-4.06-.11-7.93,2.7-9.79a6.66,6.66,0,0,1,3.76-1c-1.28-4-.26-8.16,2.88-10.24,3.93-2.6,9.62-.92,12.72,3.75s2.43,10.57-1.5,13.17a7.38,7.38,0,0,1-3.25,1.17c2.61,5.1,2.08,10.68-1.47,13a6.17,6.17,0,0,1-2.1.88c1,4,.11,7.92-2.69,9.78a6.58,6.58,0,0,1-3.48,1c1.3,3.49.47,7.24-2.29,9.07-3.32,2.2-8.13.78-10.74-3.17S1811.06,1084,1814.38,1081.82Z"/><path class="cls-3" d="M1635,1070l13.3-7.71s3.68-18.86,25-19.32l-6,19.32s10.51,8.16,35.44-5.8c24.37-5.48,14,12.29,22,13.56,11.92,1.89-8.69,25.31-33,28.89-31.49,4.64-35.23-1.81-35.23-1.81l-17.81,6.23Z"/><path id="c-15" data-name="c" class="cls-4" d="M1499,1092c44.45-3.11,133.23-26.85,133.23-26.85,12.13,18.61,8.77,43.33,8.77,43.33-69,60.52-172.92,80.09-204.79,65.52-29.1-13.3-8.43-190.5,64.64-231.08Z"/></g><path class="cls-2" d="M1733.89,991.65c-2.52,6.3-9,9.65-14.46,7.47s-7.86-9.07-5.34-15.38,9-9.65,14.46-7.47S1736.41,985.34,1733.89,991.65Z"/><path class="cls-2" d="M1752.51,989.51c-1.5,3.76-5.36,5.75-8.62,4.45s-4.69-5.41-3.19-9.17,5.37-5.76,8.63-4.46S1754,985.74,1752.51,989.51Z"/></g><path class="cls-3" d="M1850.08,950c15.15-15.28,5.21-31,5.21-31,8.31-1.78,52.16,64.65,71.07,106.86,33-33.24,91.09-78.13,106.81-80.75,0,0,21.2-5.7,28.81,19.93,6.8,22.88-19.71,39.09-19.71,39.09s-113.43,80.08-130.21,73C1886,1066,1862.33,970.73,1850.08,950Z"/><path class="cls-3" d="M1826.4,948.1c9.25.56,21.42-4,25,4.28l17.54-8.9,1.11-11c-15.7-25.15-54-32.29-57.75-32.62-9.84-.87-14.41-1.88-15.18-.56s-3.18,10.07,11.1,11.79c17.93,2.15,6,16.48-30.33,2.84-9.11-3.42-26.24,1-20,7.67C1764.67,928.91,1784.28,945.53,1826.4,948.1Z"/><path class="cls-11" d="M2103.54,739.48c24.66-25.26,74.79-29.15,84.05,7.55s8.33,61.55,54.19,53.07c36.53-6.76,76.32,24,79.38,76,3.91,66.43-43.65,43.29-31,75.48s21.45,65.07-26,69-86.66-33.71-84.28-88-31-32.47-42.68-58.59C2120.63,836.73,2103.54,739.48,2103.54,739.48Z"/><path class="cls-3" d="M1988.48,1744.78l-21.38-84.24,53.06-7.3c1.82,39.83,4.8,79.06,4.54,89.68Z"/><path class="cls-3" d="M2115.11,1652.75h55.4c-1.82,13.28-9.09,85.18-9.09,85.18-4.68,10.62-46,8.19-46,2.22C2118.57,1727.2,2115.37,1654.41,2115.11,1652.75Z"/><path class="cls-14" d="M2024.51,1685.68l-54.64,8.06L1932,1467.17c7.8-86,83.5-268.92,83.5-268.92l85.32,29.88,2.08,80.68-102.75,174C2013.53,1516.41,2022.69,1625.19,2024.51,1685.68Z"/><path class="cls-5" d="M2066.74,1204.31c.78-5.31,1-7,5.47-9.62l81.93-23.24,19.51,19.25c18.47,67.07,7,160.36-7.54,234.39,21.33,64.07,13,196.16,4.4,258.25h-58.27c-3.38-41.5-2.32-118.48-2.58-155.66h0c-7.54-29.88-14.82-61.75-21.33-95.29-8.32-42.82-18.73-84.32-21.59-123.17C2064.14,1272.37,2063.36,1232.87,2066.74,1204.31Z"/><path class="cls-3" d="M2150.82,834.89c.31,44.53-27.79,80.83-62.77,81.08s-63.58-35.67-63.9-80.2,27.8-80.84,62.78-81.08S2150.51,790.35,2150.82,834.89Z"/><path class="cls-3" d="M2129.33,879.19l-50.86,28.89s-4.52,20.59-6.77,27.28c-4.65,13.79,13.16,19.81,28.22,11.23a102.6,102.6,0,0,0,24.81-20.07Z"/><path class="cls-12" d="M2022.39,827.05c12.12-1.1,79.62-18.54,87.42-30.73-.63,29,43,62,48.85,53.51,20.44-53.55,5.55-99.4-54.37-111.35C2022.12,722.08,2022.39,827.05,2022.39,827.05Z"/><path d="M2099.15,849.71a7,7,0,1,1-2.21-9.67A7,7,0,0,1,2099.15,849.71Z"/><path d="M2050.11,849.05A6.58,6.58,0,1,1,2048,840,6.58,6.58,0,0,1,2050.11,849.05Z"/><path class="cls-12" d="M2032,835.14a2.24,2.24,0,0,1-.68-.47,2.92,2.92,0,0,1,0-3.93c7.91-9.06,17.64-6.42,18.05-6.31a2.62,2.62,0,0,1,1.6,3.4,2.8,2.8,0,0,1-3.29,2,13,13,0,0,0-12.73,4.55A2.58,2.58,0,0,1,2032,835.14Z"/><path class="cls-12" d="M2106,836.44a2.11,2.11,0,0,0,.68-.48,2.93,2.93,0,0,0,0-3.93c-7.92-9-17.64-6.42-18-6.3a2.6,2.6,0,0,0-1.6,3.39,2.8,2.8,0,0,0,3.29,2,13,13,0,0,1,12.73,4.54A2.58,2.58,0,0,0,2106,836.44Z"/><path class="cls-7" d="M2055.1,853.8c-2.06,4.33-3.7,8.62-6.07,11.54a2.41,2.41,0,0,0,.28,3.3c3.9,3.5,12.23,4.64,17.22,5a.64.64,0,0,0,.29-1.24c-5.71-2.37-8.57-4.57-9.89-5.87a2.87,2.87,0,0,1-.83-2.47c.3-2.09.86-6.34,1.06-9.76A1.08,1.08,0,0,0,2055.1,853.8Z"/><path class="cls-3" d="M2134.32,852.6c-7.31,7.5-8.25,18.43-2.11,24.41s17.05,4.74,24.35-2.77,8.25-18.43,2.1-24.41S2141.62,845.09,2134.32,852.6Z"/><path class="cls-7" d="M2139.23,870.82a2.41,2.41,0,0,1-.74-.75c-2.74-4.52-2.57-9.27.46-12.71a11,11,0,0,1,12.44-2.94,2.29,2.29,0,0,1-1.86,4.19,6.53,6.53,0,0,0-7.14,1.77c-1.69,1.92-1.68,4.52,0,7.31a2.29,2.29,0,0,1-.76,3.15A2.32,2.32,0,0,1,2139.23,870.82Z"/><path class="cls-18" d="M2012.23,1204.34c88.89,34.17,166.39,8.92,166.39,8.92-.27-11.82,1.41-49.08-16.58-89.83,4.37-34.51,2.7-86.36,4.07-106.26-10.59-53.37-5.56-57.89,4-83l-33.26-9.82L2077,945.43,2072.53,931s-37.37,11.32-45.26,15.68l-14.35,56.86,3.07,125.74S2015.86,1196.64,2012.23,1204.34Z"/><path class="cls-7" d="M2071.08,896.86a23.31,23.31,0,0,0,4.42,0c10.9-1,17.78-9.38,18.07-9.73a2.56,2.56,0,0,0-4-3.22h0c-.06.07-5.88,7.08-14.6,7.85-5.69.51-11.47-1.72-17.18-6.61a2.56,2.56,0,1,0-3.33,3.89C2059.89,893.69,2065.45,896.31,2071.08,896.86Z"/><path class="cls-12" d="M2001.39,1743.42c-5.55-14.57-17.41-16.19-17.41-16.19-23.06,30.75-79.69,11.88-77.81,53.48,86.11-.53,121.9,0,121.9,0-.11-9.55-1.81-32.23-3.8-41.11l-4.49.8Z"/><path class="cls-8" d="M1911.15,1779.57H2023a5,5,0,0,1,5,5v7.22a0,0,0,0,1,0,0H1906.12a0,0,0,0,1,0,0v-7.22A5,5,0,0,1,1911.15,1779.57Z" transform="translate(3934.19 3571.38) rotate(180)"/><path class="cls-12" d="M2105.58,1781.12s6.92-25.8,7.53-29.11c.69-3.77,2.72-12.67,3.14-17.24.1-1.13,12-8.38,21-8.37,12.28,0,23.47,7.13,23.69,8.47,1.45,8.61,1.5,18.73,3.84,27.11,1.75,6.24,6.49,20.77,6.49,20.77Z"/><path class="cls-8" d="M2105.58,1779.11c1.62,5.12,21.49-.79,36-.78,12.18,0,27.93,4.72,29.72,2.88,3,5.38.54,16.53.54,16.53s-12.69.65-27.91,0-32.81.31-39.44-1.65C2100.31,1789.09,2105.58,1779.11,2105.58,1779.11Z"/><path class="cls-11" d="M2140.88,925.51c-12.85,20.61-40.07,77.57-37.34,152.06s21.37,165,12.77,248c43.77,3.89,85.55-1.73,85.55-1.73-4.66-49-31.76-389.67-31.76-389.67Z"/><g id="c-16" data-name="c"><path class="cls-3" d="M2208.2,1137.2l-8.11,3.24s-6-13.75-14.53-13.32l1.1,13.62s-4.15,14.53-30.1,12.81c-22.16,5-6.66,15.56-12.79,19.77-9.06,6.21,16.33,21.46,37.73,14.88,27.68-8.51,45.66-34.65,45.66-34.65Z"/></g><path class="cls-3" d="M2170.1,934.14s78.05,34.63,121.66,125.29c-25.47,35.86-53,14.53-53,14.53l-72.7-56.79s-17.38-24.1-13.51-51.12C2156.36,939.86,2170.1,934.14,2170.1,934.14Z"/><path class="cls-3" d="M2206.89,1137.73l36.55-64.45s6.33-28.91,48.32-13.85c2,22.58,9.2,46.09-65.7,95.63A215.53,215.53,0,0,1,2206.89,1137.73Z"/><path class="cls-17" d="M2125.28,917.66l23.45,10c-2.47,28.17-65.5,45-65.5,45L2077,945.43Z"/><path class="cls-11" d="M2053.58,935.19c-11.52,36.81-28.9,88.18-24.16,143.27s10.46,144-17.19,238c-20.54,4-48.5,1-48.5,1s40.46-138,38.66-199.4c-2-68.1,1.13-129.37,17.88-168.35C2032.86,944.26,2053.58,935.19,2053.58,935.19Z"/><path class="cls-17" d="M2077,945.43l-18.56,20.62s-16.05-16.59-10.24-26.85,26.5-17.18,26.5-17.18Z"/><path class="cls-8" d="M1529.18,1420.34c-8.52,0-17.12-.23-25.56-.69a7,7,0,1,1,.75-14c9.76.53,19.69.75,29.55.64h.07a7,7,0,0,1,.07,14C1532.44,1420.33,1530.81,1420.34,1529.18,1420.34ZM1564,1419a7,7,0,0,1-.51-14c9.94-.74,19.81-1.82,29.34-3.2a7,7,0,0,1,2,13.85c-9.85,1.43-20,2.55-30.31,3.32Zm375.93-1.79h-.26a104.88,104.88,0,0,1-31.48-5.85,7,7,0,0,1,4.7-13.19,91,91,0,0,0,27.29,5,7,7,0,0,1-.25,14Zm-465.77-.23a8.46,8.46,0,0,1-.87,0c-10.37-1.29-20.51-2.94-30.16-4.92a7,7,0,1,1,2.82-13.71c9.28,1.9,19.06,3.49,29.06,4.73a7,7,0,0,1-.85,14Zm495.52-2.84a7,7,0,0,1-1.69-13.79,79.94,79.94,0,0,0,25.2-10.88,7,7,0,1,1,7.8,11.62,93.7,93.7,0,0,1-29.6,12.84A7.21,7.21,0,0,1,1969.64,1414.18Zm-346.35-3.83a7,7,0,0,1-1.54-13.83c9.9-2.24,19.41-4.87,28.26-7.81a7,7,0,1,1,4.4,13.29c-9.28,3.08-19.23,5.83-29.56,8.17A7.05,7.05,0,0,1,1623.29,1410.35Zm-207.85-5.55a7.15,7.15,0,0,1-2.08-.32,225.71,225.71,0,0,1-28.9-11.06,7,7,0,0,1,5.94-12.68,211.94,211.94,0,0,0,27.11,10.37,7,7,0,0,1-2.07,13.69Zm469.56-8.35a7,7,0,0,1-4.87-2,60.9,60.9,0,0,1-16.89-28.79,7,7,0,1,1,13.54-3.53,47.16,47.16,0,0,0,13.08,22.25,7,7,0,0,1-4.86,12Zm-205-5.24a7,7,0,0,1-3-13.31,153.2,153.2,0,0,0,24.62-14.64,7,7,0,0,1,8.33,11.25,167,167,0,0,1-26.87,16A6.82,6.82,0,0,1,1680.05,1391.21Zm337.09-10.72a6.9,6.9,0,0,1-3.24-.8,7,7,0,0,1-3-9.44,48,48,0,0,0,5.34-22.48c0-1,0-1.94-.08-2.91a7,7,0,1,1,14-.71c.06,1.21.1,2.43.1,3.62a61.79,61.79,0,0,1-6.93,29A7,7,0,0,1,2017.14,1380.49Zm-655.43-1.74a7,7,0,0,1-4.26-1.46c-2.49-1.91-4.86-3.91-7-5.92-5-4.58-10.49-9.78-15.71-14.71a7,7,0,0,1,9.61-10.18c5.19,4.9,10.67,10.07,15.58,14.59,1.89,1.74,3.94,3.46,6.11,5.13a7,7,0,0,1-4.28,12.55ZM1727.16,1355a7,7,0,0,1-5.6-11.2q.76-1,1.47-2a133.51,133.51,0,0,1,19-21.54,7,7,0,0,1,9.5,10.29,118.48,118.48,0,0,0-17,19.24c-.57.82-1.15,1.63-1.75,2.43A7,7,0,0,1,1727.16,1355Zm142.25-13.89a6.12,6.12,0,0,1-.74,0,7,7,0,0,1-6.23-7.69,177.21,177.21,0,0,1,5.9-30.56,7,7,0,0,1,13.45,3.87,164.1,164.1,0,0,0-5.43,28.15A7,7,0,0,1,1869.41,1341.14Zm-551.8-3.14a7,7,0,0,1-4.76-1.88c-8-7.4-15.18-14-22.08-20.13a7,7,0,1,1,9.31-10.45c7,6.21,14.27,12.86,22.3,20.33a7,7,0,0,1-4.77,12.13Zm698.23-15.37a7,7,0,0,1-6.31-4,63.86,63.86,0,0,0-16.52-21.13,7,7,0,1,1,9-10.7,77.8,77.8,0,0,1,20.09,25.76,7,7,0,0,1-6.3,10Zm-245.3-8.48a7,7,0,0,1-3.8-12.89,234,234,0,0,1,27.07-14.93,7,7,0,0,1,6,12.67,222.15,222.15,0,0,0-25.45,14A6.93,6.93,0,0,1,1770.54,1314.15Zm-497.83-16a6.94,6.94,0,0,1-4.49-1.63c-7.85-6.56-15.64-12.84-23.17-18.64a7,7,0,0,1,8.54-11.09c7.68,5.92,15.62,12.31,23.61,19a7,7,0,0,1-4.49,12.37Zm551.91-9.65a7,7,0,0,1-2.25-13.63,295.39,295.39,0,0,1,29.59-8.33,7,7,0,0,1,3.08,13.66,277.75,277.75,0,0,0-28.17,7.93A7.12,7.12,0,0,1,1824.62,1288.48Zm147.15-4.42a7.06,7.06,0,0,1-2.6-.5,132,132,0,0,0-27.43-7.45,7,7,0,0,1,2.29-13.82,147.27,147.27,0,0,1,30.35,8.27,7,7,0,0,1-2.61,13.5ZM1886,1284a12,12,0,0,1-3.68-22.58c1.55-.18,3.11-.34,4.66-.49q4.29-6.95,9.26-13.54a7,7,0,0,1,11.18,8.43c-1,1.33-2,2.67-2.94,4q4.36-.12,8.64-.08a7,7,0,0,1-.06,14H1913q-8.65-.09-17.63.53c-1.08,1.93-2.12,3.88-3.1,5.85A7,7,0,0,1,1886,1284Zm-660.83-22.38a7,7,0,0,1-4-1.25c-8.34-5.8-16.68-11.25-24.78-16.18a7,7,0,1,1,7.29-12c8.33,5.08,16.91,10.68,25.48,16.64a7,7,0,0,1-4,12.75Zm696.58-25.36a7,7,0,0,1-4.85-12,227.65,227.65,0,0,1,23.75-19.79,7,7,0,1,1,8.23,11.32,213.44,213.44,0,0,0-22.28,18.57A7,7,0,0,1,1921.71,1236.21Zm-747.89-5.76a7.07,7.07,0,0,1-3.19-.77c-9-4.6-18-8.72-26.69-12.24a7,7,0,0,1,5.24-13c9.12,3.68,18.49,8,27.84,12.77a7,7,0,0,1-3.2,13.23Zm-200.68-6.66a7,7,0,0,1-3.45-13.1,197.26,197.26,0,0,1,28.16-13.14,7,7,0,0,1,4.88,13.12,182.65,182.65,0,0,0-26.15,12.21A7,7,0,0,1,973.14,1223.79Zm145-15.56a6.85,6.85,0,0,1-1.89-.27,218.7,218.7,0,0,0-28.41-6,7,7,0,0,1,1.94-13.86,232.83,232.83,0,0,1,30.24,6.38,7,7,0,0,1-1.88,13.75Zm1337.58-3a7,7,0,0,1-6.42-4.21c-2.67-6.12-8.69-12.22-17.9-18.13a7,7,0,1,1,7.56-11.78c11.58,7.43,19.38,15.61,23.18,24.32a7,7,0,0,1-6.42,9.8Zm-1426.61-2.17a7,7,0,0,1-1.28-13.88,184.41,184.41,0,0,1,31-3.09,7,7,0,1,1,.22,14,171.06,171.06,0,0,0-28.63,2.85A7.12,7.12,0,0,1,1029.15,1203.09Zm940.81-2.26a7,7,0,0,1-3.47-13.08c8.59-4.88,17.79-9.53,27.35-13.84a7,7,0,1,1,5.75,12.77c-9.17,4.12-18,8.58-26.18,13.24A7,7,0,0,1,1970,1200.83Zm54.58-24.75a7,7,0,0,1-2.37-13.59c9.29-3.33,19-6.47,29-9.32a7,7,0,1,1,3.85,13.46c-9.67,2.77-19.13,5.81-28.12,9A7,7,0,0,1,2024.54,1176.08Zm383.8-5.28a7.07,7.07,0,0,1-2.53-.47,275.81,275.81,0,0,0-27.83-9,7,7,0,1,1,3.65-13.51,289.66,289.66,0,0,1,29.25,9.47,7,7,0,0,1-2.54,13.52Zm-326.15-11.29a7,7,0,0,1-1.53-13.83c9.66-2.17,19.69-4.15,29.8-5.88a7,7,0,0,1,2.36,13.8c-9.88,1.69-19.67,3.62-29.09,5.74A7.41,7.41,0,0,1,2082.19,1159.51Zm268.38-4.66a7.67,7.67,0,0,1-1.34-.12c-9.33-1.81-19.16-3.42-29.23-4.78a7,7,0,0,1,1.89-13.88c10.32,1.4,20.41,3,30,4.91a7,7,0,0,1-1.32,13.87Zm-209.23-5.5a7,7,0,0,1-.85-13.95c9.9-1.22,20-2.24,30.16-3.05a7,7,0,1,1,1.11,14c-9.92.79-19.86,1.79-29.56,3A6.33,6.33,0,0,1,2141.34,1149.35Zm149.79-2.65c-.21,0-.41,0-.62,0-9.71-.85-19.69-1.5-29.64-1.93a7,7,0,0,1,.61-14c10.16.45,20.33,1.11,30.25,2a7,7,0,0,1-.6,14Zm-90-2.12a7,7,0,0,1-.26-14c9.38-.35,18.89-.53,28.29-.53h2a7,7,0,0,1,0,14h-2c-9.22,0-18.56.17-27.76.52Z"/><path class="cls-22" d="M1032.1,1003.26H852a20.25,20.25,0,0,0-20.25,20.25v101A20.25,20.25,0,0,0,852,1144.81h5.87l20.86,39.31a7.46,7.46,0,0,0,13,.37l24.12-39.68H1032.1a20.25,20.25,0,0,0,20.25-20.25v-101A20.25,20.25,0,0,0,1032.1,1003.26Z"/><path class="cls-22" d="M938.27,980.65h0a11.84,11.84,0,0,1-11.84-11.84v-36A11.84,11.84,0,0,1,938.27,921h0a11.84,11.84,0,0,1,11.84,11.84v36A11.84,11.84,0,0,1,938.27,980.65Z"/><path class="cls-22" d="M981.18,977.18h0a11.84,11.84,0,0,1,0-16.74L1006.64,935a11.85,11.85,0,0,1,16.75,0h0a11.85,11.85,0,0,1,0,16.75l-25.46,25.46A11.84,11.84,0,0,1,981.18,977.18Z"/><path class="cls-22" d="M895.36,977.18h0a11.84,11.84,0,0,0,0-16.74L869.9,935a11.85,11.85,0,0,0-16.75,0h0a11.85,11.85,0,0,0,0,16.75l25.46,25.46A11.84,11.84,0,0,0,895.36,977.18Z"/><path class="cls-8" d="M1021.17,994.71H841.11A20.25,20.25,0,0,0,820.86,1015v101a20.25,20.25,0,0,0,20.25,20.25H847l20.87,39.3a7.45,7.45,0,0,0,12.95.38l24.12-39.68h116.25a20.25,20.25,0,0,0,20.25-20.25V1015A20.25,20.25,0,0,0,1021.17,994.71Z"/><path class="cls-14" d="M1005.78,1026.32l.05,78.94a5.43,5.43,0,0,1-5.43,5.44l-137.19.09a5.42,5.42,0,0,1-5.44-5.43l0-78.94a5.43,5.43,0,0,1,5.43-5.44l137.19-.1A5.44,5.44,0,0,1,1005.78,1026.32Z"/><path class="cls-5" d="M1005.78,1026.32v4.37l-62.47,44.93a17.33,17.33,0,0,1-20.53.19l-65.06-46.9v-2.49a5.44,5.44,0,0,1,5.44-5.44l137.17-.1A5.45,5.45,0,0,1,1005.78,1026.32Z"/><path class="cls-8" d="M930.23,973.16h0a11.84,11.84,0,0,1-11.84-11.84v-36a11.84,11.84,0,0,1,11.84-11.84h0a11.84,11.84,0,0,1,11.84,11.84v36A11.84,11.84,0,0,1,930.23,973.16Z"/><path class="cls-8" d="M973.14,969.69h0a11.82,11.82,0,0,1,0-16.74l25.46-25.47a11.85,11.85,0,0,1,16.75,0h0a11.85,11.85,0,0,1,0,16.75l-25.47,25.46A11.82,11.82,0,0,1,973.14,969.69Z"/><path class="cls-8" d="M887.32,969.69h0a11.84,11.84,0,0,0,0-16.74l-25.47-25.47a11.84,11.84,0,0,0-16.74,0h0a11.84,11.84,0,0,0,0,16.75l25.46,25.46A11.84,11.84,0,0,0,887.32,969.69Z"/><path class="cls-23" d="M1011.68,500.89h256a54.7,54.7,0,0,1,54.7,54.7v103a54.7,54.7,0,0,1-54.7,54.7h-176.6l6.21,115c.47,8.82-11.59,11.79-15.27,3.76l-54.43-118.74h-15.94a54.7,54.7,0,0,1-54.7-54.7v-103A54.7,54.7,0,0,1,1011.68,500.89Z"/><path class="cls-24" d="M1004.26,569.06h266.17a18.71,18.71,0,0,0,18.71-18.71h0a18.71,18.71,0,0,0-18.71-18.7H1004.26a18.71,18.71,0,0,0-18.71,18.7h0A18.71,18.71,0,0,0,1004.26,569.06Z"/><path class="cls-24" d="M1004.26,624.49h266.17a18.71,18.71,0,0,0,18.71-18.7h0a18.71,18.71,0,0,0-18.71-18.71H1004.26a18.71,18.71,0,0,0-18.71,18.71h0A18.71,18.71,0,0,0,1004.26,624.49Z"/><rect class="cls-24" x="1073.83" y="642.52" width="215.31" height="37.41" rx="15.75" transform="translate(2362.96 1322.45) rotate(180)"/><rect class="cls-8" x="2514.55" y="486.8" width="243.11" height="134.71" rx="27.01"/><rect class="cls-8" x="2335.26" y="679.93" width="315.62" height="174.88" rx="35.06"/><polygon class="cls-8" points="2553.12 621.51 2553.12 691.54 2596.74 621.51 2553.12 621.51"/><path class="cls-8" d="M2606.18,847v65.11a5,5,0,0,1-9.4,2.25L2562.56,847Z"/><path class="cls-24" d="M2718.3,541.47H2553.92a14.41,14.41,0,0,1-14.42-14.42h0a14.42,14.42,0,0,1,14.42-14.42H2718.3a14.43,14.43,0,0,1,14.42,14.42h0A14.42,14.42,0,0,1,2718.3,541.47Z"/><rect class="cls-24" x="2539.5" y="559.2" width="193.22" height="28.84" rx="14.42"/><path class="cls-24" d="M2609.72,734.59H2379.37a16,16,0,0,1-16-16h0a16,16,0,0,1,16-16h230.35a16,16,0,0,1,16,16h0A16,16,0,0,1,2609.72,734.59Z"/><path class="cls-24" d="M2609.72,785.47H2379.37a16,16,0,0,1-16-16h0a16,16,0,0,1,16-16h230.35a16,16,0,0,1,16,16h0A16,16,0,0,1,2609.72,785.47Z"/><path class="cls-24" d="M2464.25,804.27h147.82A13.68,13.68,0,0,1,2625.76,818v4.71a13.68,13.68,0,0,1-13.68,13.68H2464.25a13.69,13.69,0,0,1-13.69-13.69V818A13.69,13.69,0,0,1,2464.25,804.27Z"/><path class="cls-8" d="M459.69,741.69h-.37a7,7,0,0,1-6.63-7.36,144.86,144.86,0,0,1,5.47-31.15A7,7,0,0,1,471.62,707a129.39,129.39,0,0,0-4.94,28A7,7,0,0,1,459.69,741.69Zm16.39-57.4a7,7,0,0,1-6.17-10.3,135.48,135.48,0,0,1,18-26,7,7,0,1,1,10.48,9.28,121.57,121.57,0,0,0-16.1,23.26A7,7,0,0,1,476.08,684.29Zm39.4-44.46a7,7,0,0,1-4-12.75,144.86,144.86,0,0,1,27.63-14.94,7,7,0,0,1,5.31,13,131.11,131.11,0,0,0-25,13.49A7,7,0,0,1,515.48,639.83Zm54.88-23A7,7,0,0,1,568.9,603a222.49,222.49,0,0,1,30.6-4.27,7,7,0,1,1,1,14,208.64,208.64,0,0,0-28.68,4A7.41,7.41,0,0,1,570.36,616.86Zm82.45-3.63c-4.35,0-8.83-.15-13.32-.46-3.29-.22-6.59-.39-9.79-.5a7,7,0,0,1,.51-14c3.34.13,6.78.3,10.21.54a180.08,180.08,0,0,0,19.22.28,7,7,0,0,1,.57,14C657.78,613.18,655.3,613.23,652.81,613.23ZM689.56,609a7,7,0,0,1-1.67-13.8,114.72,114.72,0,0,0,26.36-10,7,7,0,1,1,6.56,12.36,128.61,128.61,0,0,1-29.57,11.18A7,7,0,0,1,689.56,609Zm52.26-28a7,7,0,0,1-4.8-12.1,111.81,111.81,0,0,0,17.81-21.78,7,7,0,1,1,11.85,7.46,125.49,125.49,0,0,1-20.06,24.51A7,7,0,0,1,741.82,581Zm31.95-50.11a7,7,0,0,1-6.59-9.37,156.22,156.22,0,0,0,7.08-27.79A7,7,0,1,1,788.08,496a171,171,0,0,1-7.72,30.29A7,7,0,0,1,773.77,530.93Zm931.12-11.29a7,7,0,0,1-6-3.4c-5-8.31-10.43-16.59-16.15-24.61a7,7,0,1,1,11.4-8.13c5.93,8.32,11.56,16.9,16.75,25.53a7,7,0,0,1-6,10.61ZM731.23,473.26h-.4a202.21,202.21,0,0,1-30.78-4.05A7,7,0,0,1,703,455.51a188.44,188.44,0,0,0,28.65,3.76,7,7,0,0,1-.4,14Zm30-.08a7,7,0,0,1-.39-14c5-.29,10.18-.72,15.46-1.28A178.35,178.35,0,0,0,774,436.29,7,7,0,0,1,787.81,434a194.49,194.49,0,0,1,2.4,22.19A7,7,0,0,1,792,470l-4.47.62a7.05,7.05,0,0,1-6.73.83c-6.59.76-13,1.32-19.23,1.67Zm908.93-2.37a7,7,0,0,1-5.39-2.53c-6.21-7.47-12.82-14.87-19.65-22a7,7,0,1,1,10.11-9.68c7.06,7.36,13.89,15,20.31,22.74a7,7,0,0,1-5.38,11.47Zm-849.56-6A7,7,0,0,1,819.12,451c9.23-2,18.93-4.28,28.83-6.92a7,7,0,0,1,3.6,13.53c-10.13,2.7-20.07,5.08-29.53,7.09A7.21,7.21,0,0,1,820.57,464.81ZM673,460.29a6.94,6.94,0,0,1-2.8-.59A134.17,134.17,0,0,1,647.35,447c-1.48-1-2.94-2.06-4.35-3.08a7,7,0,0,1,8.2-11.35q2,1.45,4.14,2.93a119.59,119.59,0,0,0,20.44,11.38A7,7,0,0,1,673,460.29Zm205.61-10.8a7,7,0,0,1-2.07-13.69c9.09-2.81,18.61-5.94,28.3-9.28a7,7,0,1,1,4.57,13.23c-9.83,3.4-19.49,6.57-28.73,9.43A7.12,7.12,0,0,1,878.58,449.49ZM935.33,430a7,7,0,0,1-2.46-13.55c8.94-3.35,18.31-7,27.85-10.79a7,7,0,0,1,5.18,13c-9.62,3.84-19.09,7.5-28.12,10.89A7,7,0,0,1,935.33,430Zm693.34-2.45a7,7,0,0,1-4.72-1.83c-7.2-6.56-14.76-13-22.47-19.18a7,7,0,0,1,8.75-10.93c7.94,6.35,15.73,13,23.16,19.77a7,7,0,0,1-4.72,12.17ZM624.06,426.08a7,7,0,0,1-4.91-2c-8.82-8.66-15.39-17.26-19.53-25.55a7,7,0,0,1,12.53-6.25c3.44,6.9,9.1,14.24,16.81,21.82a7,7,0,0,1-4.9,12Zm149.36-13a7,7,0,0,1-6.59-4.64A123.85,123.85,0,0,0,754.44,383a7,7,0,0,1,11.75-7.61A138.1,138.1,0,0,1,780,403.75a7,7,0,0,1-6.58,9.37Zm217.67-5.37a7,7,0,0,1-2.7-13.46c8.75-3.66,18-7.61,27.52-11.74a7,7,0,0,1,5.57,12.84c-9.56,4.15-18.88,8.13-27.69,11.82A7,7,0,0,1,991.09,407.75ZM1581.84,390a6.93,6.93,0,0,1-4-1.27c-8-5.61-16.33-11.07-24.72-16.23a7,7,0,1,1,7.32-11.93c8.64,5.3,17.19,10.92,25.43,16.7a7,7,0,0,1-4,12.73Zm-535.68-6.16a7,7,0,0,1-2.85-13.4c8.54-3.81,17.48-7.83,27.32-12.3a7,7,0,0,1,5.79,12.75c-9.87,4.48-18.83,8.52-27.41,12.34A7,7,0,0,1,1046.16,383.88Zm-442.7-10.39a7,7,0,0,1-6.43-9.74c4.13-9.7,12.8-17.81,25.07-23.46A7,7,0,0,1,628,353c-9.07,4.18-15.31,9.79-18.06,16.24A7,7,0,0,1,603.46,373.49ZM740.34,364a6.91,6.91,0,0,1-4.25-1.44,55.24,55.24,0,0,0-15.35-8.39c-3-1.06-6.19-2.05-9.31-2.93a7,7,0,0,1,3.79-13.48c3.4,1,6.81,2,10.13,3.19a69.37,69.37,0,0,1,19.25,10.49A7,7,0,0,1,740.34,364Zm360.49-4.93a7,7,0,0,1-2.92-13.36l18.72-8.6,8.55-3.93a7,7,0,1,1,5.84,12.72l-8.55,3.93-18.72,8.6A6.91,6.91,0,0,1,1100.83,359.08Zm429.91-.42a7,7,0,0,1-3.29-.83c-8.66-4.62-17.57-9.05-26.5-13.16a7,7,0,1,1,5.86-12.72c9.17,4.23,18.34,8.78,27.23,13.53a7,7,0,0,1-3.3,13.18ZM653.93,346.09a7,7,0,0,1-.78-13.95,153,153,0,0,1,31.4-.13,7,7,0,1,1-1.34,13.93,138.81,138.81,0,0,0-28.49.11A7.09,7.09,0,0,1,653.93,346.09Zm501.46-12a7,7,0,0,1-2.91-13.37q4.73-2.16,9.42-4.28c6-2.75,12.3-5.34,18.59-7.71a7,7,0,0,1,4.94,13.1c-6,2.26-12,4.74-17.75,7.36-3.11,1.41-6.25,2.83-9.39,4.27A7,7,0,0,1,1155.39,334.05Zm320.88-.48a6.94,6.94,0,0,1-2.55-.48c-9.16-3.58-18.54-6.92-27.86-9.93a7,7,0,0,1,4.3-13.32c9.59,3.1,19.23,6.53,28.65,10.21a7,7,0,0,1-2.54,13.52Zm-57.07-18.42a7.05,7.05,0,0,1-1.75-.22c-9.56-2.46-19.26-4.63-28.84-6.46a7,7,0,1,1,2.62-13.75c9.87,1.88,19.86,4.12,29.71,6.65a7,7,0,0,1-1.74,13.78ZM1211.49,313a7,7,0,0,1-1.84-13.75c9.69-2.65,19.74-4.91,29.86-6.73A7,7,0,0,1,1242,306.3c-9.72,1.75-19.36,3.92-28.66,6.46A7.26,7.26,0,0,1,1211.49,313Zm148.81-9.08a8.46,8.46,0,0,1-.87-.05c-9.81-1.22-19.71-2.11-29.41-2.64a7,7,0,0,1,.77-14c10,.55,20.23,1.47,30.36,2.72a7,7,0,0,1-.85,13.95Zm-89.84-1.57a7,7,0,0,1-.66-14c10-.95,20.25-1.52,30.49-1.7a7,7,0,1,1,.25,14c-9.89.18-19.78.73-29.41,1.65C1270.91,302.34,1270.68,302.35,1270.46,302.35Z"/><polygon class="cls-25" points="1710.86 471.44 1688.19 508.57 1883.33 641.7 1710.86 471.44"/><polygon class="cls-25" points="1668.07 553.13 1679.88 595.7 1874.65 635.57 1668.07 553.13"/><polygon class="cls-8" points="1883.33 641.7 1554.25 529.54 1668.07 489.51 1883.33 641.7"/><polygon class="cls-8" points="1710.86 471.44 1883.33 641.7 1782.38 441.24 1710.86 471.44"/><path class="cls-8" d="M2878.68,208.5a7,7,0,0,1,0-14,112.8,112.8,0,0,0,28-3.31,7,7,0,1,1,3.49,13.56,126.77,126.77,0,0,1-31.45,3.75Zm-29.84-2.66a7.94,7.94,0,0,1-1.18-.1,264.14,264.14,0,0,1-30-7,7,7,0,1,1,3.94-13.43,248.77,248.77,0,0,0,28.4,6.64,7,7,0,0,1-1.16,13.91Zm86.82-13a7,7,0,0,1-3.94-12.79,76,76,0,0,0,17.59-16.74,7,7,0,1,1,11.12,8.5,89.73,89.73,0,0,1-20.84,19.82A6.94,6.94,0,0,1,2935.66,192.85Zm-484-1.55a7,7,0,0,1-5.69-11.06,202.13,202.13,0,0,1,20-23.76,7,7,0,0,1,10,9.78,189.37,189.37,0,0,0-18.64,22.1A7,7,0,0,1,2451.69,191.3Zm339.56-2a6.85,6.85,0,0,1-2.54-.48c-9.11-3.55-18.53-7.61-28-12.07a7,7,0,1,1,6-12.66c9.18,4.32,18.3,8.25,27.11,11.69a7,7,0,0,1-2.54,13.52Zm-54.31-25.46a7,7,0,0,1-3.34-.86c-8.75-4.75-17.6-9.86-26.3-15.19a7,7,0,0,1,7.31-11.94c8.5,5.2,17.13,10.19,25.67,14.83a7,7,0,0,1-3.34,13.16ZM2493.3,148.28a7,7,0,0,1-4.36-12.48,248.24,248.24,0,0,1,25.29-17.68,7,7,0,0,1,7.28,12,232.1,232.1,0,0,0-23.86,16.68A7,7,0,0,1,2493.3,148.28Zm192.46-15.79a7,7,0,0,1-4-1.23c-3.09-2.11-6.2-4.28-9.22-6.43a118.72,118.72,0,0,0-15.24-9.26,7,7,0,1,1,6.34-12.48,134.28,134.28,0,0,1,17,10.34c3,2.1,6,4.21,9,6.28a7,7,0,0,1-4,12.78Zm-141.28-15.2a7,7,0,0,1-2.77-13.43,184.93,184.93,0,0,1,29.53-10,7,7,0,1,1,3.29,13.6,171.54,171.54,0,0,0-27.28,9.21A6.94,6.94,0,0,1,2544.48,117.29Zm87.87-11a6.93,6.93,0,0,1-1.49-.16,116.32,116.32,0,0,0-28.1-2.52,7,7,0,0,1-.43-14,129.76,129.76,0,0,1,31.5,2.83,7,7,0,0,1-1.48,13.84Z"/><polygon class="cls-25" points="2444.94 162.98 2455.04 194.82 2285.1 258.32 2444.94 162.98"/><polygon class="cls-25" points="2461.87 231.74 2445.25 261.33 2292.7 255.34 2461.87 231.74"/><polygon class="cls-8" points="2285.1 258.32 2551.08 235.02 2473.54 184.3 2285.1 258.32"/><polygon class="cls-8" points="2444.94 162.98 2285.1 258.32 2397.14 127.34 2444.94 162.98"/><path class="cls-8" d="M2227.37,530.5q12.4-9.36,29.76-9.36c25,0,38.21,13.59,38.21,32.69,0,11-5.33,22.23-16.16,33.44-13.78,14.51-23.7,21.67-29.95,21.67a10.35,10.35,0,0,1-10.47-10.47c0-5.14,4.78-10.28,13-17.82a8.06,8.06,0,0,1,1.46-1.28c9.37-8.64,12.31-13.41,12.31-19.29,0-7.35-5-11.39-12.12-11.39a39.63,39.63,0,0,0-11.76,2.2q-6.88,2.21-9.92,2.21a11.46,11.46,0,0,1-11-11.76C2220.76,537.48,2223,533.81,2227.37,530.5ZM2252.54,653c-11.21,0-18.74-8.45-18.74-18.74,0-8.81,7.53-17.26,18.74-17.26,9.74,0,17.27,8.45,17.27,17.26C2269.81,644.4,2262.64,653,2252.54,653Z"/><path class="cls-8" d="M1151.49,40q9.81-7.41,23.54-7.41c19.76,0,30.22,10.75,30.22,25.87,0,8.71-4.21,17.58-12.78,26.44-10.9,11.48-18.75,17.15-23.69,17.15a8.19,8.19,0,0,1-8.28-8.28c0-4.07,3.78-8.14,10.31-14.1a6.57,6.57,0,0,1,1.17-1c7.41-6.83,9.73-10.6,9.73-15.25,0-5.82-3.92-9-9.59-9a31.27,31.27,0,0,0-9.3,1.74A29.91,29.91,0,0,1,1155,57.9a9.06,9.06,0,0,1-8.72-9.3C1146.26,45.55,1148,42.65,1151.49,40ZM1171.4,137a14.43,14.43,0,0,1-14.83-14.82c0-7,6-13.66,14.83-13.66a13.93,13.93,0,0,1,13.66,13.66C1185.06,130.12,1179.39,137,1171.4,137Z"/><path class="cls-26" d="M845.56,114.84,786.72,223.7a8.52,8.52,0,0,1-11.56,3.45L586,124.89a8.53,8.53,0,0,1-3.44-11.56L641.38,4.48A8.52,8.52,0,0,1,652.93,1L842.11,103.28A8.52,8.52,0,0,1,845.56,114.84Z"/><path class="cls-8" d="M845.56,114.84l-3.26,6L722.65,136.18a27.17,27.17,0,0,1-28.45-15.06L639.52,7.92l1.86-3.44A8.52,8.52,0,0,1,652.94,1L842.11,103.28A8.54,8.54,0,0,1,845.56,114.84Z"/><path class="cls-8" d="M1978.42,332.64a54.46,54.46,0,1,1,54.46-54.46A54.52,54.52,0,0,1,1978.42,332.64Zm0-93.92a39.46,39.46,0,1,0,39.46,39.46A39.51,39.51,0,0,0,1978.42,238.72Z"/><path class="cls-24" d="M3124.33,718.38a54.46,54.46,0,1,1,54.46-54.46A54.52,54.52,0,0,1,3124.33,718.38Zm0-93.92a39.46,39.46,0,1,0,39.46,39.46A39.5,39.5,0,0,0,3124.33,624.46Z"/><path class="cls-8" d="M2100.51,191.52a31.1,31.1,0,1,1-31.09-31.1A31.09,31.09,0,0,1,2100.51,191.52Z"/><circle class="cls-24" cx="3126.8" cy="541.47" r="31.09"/><path class="cls-23" d="M88.58,968.6a44.29,44.29,0,1,1-44.29-44.29A44.29,44.29,0,0,1,88.58,968.6Z"/><path class="cls-8" d="M40.72,996.54h0a6.5,6.5,0,0,1-5.37-2.88L17.1,966.51a6.5,6.5,0,0,1,10.8-7.25l12.88,19.2,21.8-31.83A6.5,6.5,0,1,1,73.3,954L46.08,993.71A6.5,6.5,0,0,1,40.72,996.54Z"/><path class="cls-23" d="M92.57,1019.52a12.69,12.69,0,1,1-12.69-12.69A12.69,12.69,0,0,1,92.57,1019.52Z"/></g></g></svg>